<svg width="221" height="59" viewBox="0 0 221 59" fill="none" xmlns="http://www.w3.org/2000/svg">
<path d="M178.033 10.4028H174.673V28.0823H178.033V10.4028Z" fill="white"/>
<path d="M196.196 24.8896H196.087L184.813 10.4028H180.8V28.079H184.054V15.3415L194.021 28.079H199.45V10.4028H196.196V24.8896Z" fill="white"/>
<path d="M220.996 19.196C220.85 13.4492 217.055 10.5159 209.613 10.3995H202.239V28.0756H209.719C217.381 28.192 221.142 25.2321 220.996 19.196ZM209.503 24.5903H205.599V13.5955H209.503C214.634 13.7119 217.271 14.9424 217.417 19.196C217.417 23.7389 214.78 24.5903 209.503 24.5903Z" fill="white"/>
<path d="M160.397 24.118L153.711 10.8252H149.76L141.004 28.2386H142.758V28.2585H153.551V25.292H146.072L151.74 13.6587C152.968 16.7117 158.838 28.2419 158.838 28.2419H162.47C162.47 28.2419 167.781 14.9225 168.215 13.6021L168.325 28.0856H171.684V10.4028H166.046L160.397 24.118Z" fill="white"/>
<path d="M70.3892 10.8252L61.6328 28.2386H63.3874V28.2585H74.1803V25.292H66.7009L72.3694 13.6587C73.5966 16.7117 79.4674 28.2419 79.4674 28.2419H83.0993L74.3429 10.8285H70.3892V10.8252Z" fill="white"/>
<path d="M135.246 18.2149H123.604V10.8252H120.294V28.2386H123.604V21.1315H135.246V28.2386H138.662V10.8252H135.246V18.2149Z" fill="white"/>
<path d="M110.499 10.8252H101.209V28.2386H104.625V21.6969H110.178C115.518 21.6404 118.224 19.7713 118.294 16.0898C118.012 12.7508 115.412 10.9948 110.499 10.8252ZM109.753 19.2392H104.625V12.947H109.753C112.957 13.0035 114.629 14.081 114.771 16.1762C114.698 18.3845 113.027 19.1827 109.753 19.2392Z" fill="white"/>
<path d="M87.5407 10.8252H84.2305V28.2386H99.1827V25.2887H87.5407V10.8252Z" fill="white"/>
<path d="M43.2176 12.6943C41.9315 12.6943 40.8887 13.7372 40.8887 15.0233C40.8887 16.3094 41.9315 17.3522 43.2176 17.3522C44.5037 17.3522 45.5466 16.3094 45.5466 15.0233C45.5466 13.7372 44.5037 12.6943 43.2176 12.6943Z" fill="url(#paint0_linear_38_36)"/>
<path d="M50.4344 22.8997C48.5519 22.8997 47.0293 24.4257 47.0293 26.3048C47.0293 28.1873 48.5553 29.7099 50.4344 29.7099C52.3136 29.7099 53.8395 28.184 53.8395 26.3048C53.8395 24.4257 52.3136 22.8997 50.4344 22.8997Z" fill="url(#paint1_linear_38_36)"/>
<path d="M35.2282 18.8182C32.8759 18.8182 30.9668 20.7273 30.9668 23.0796C30.9668 25.4319 32.8759 27.341 35.2282 27.341C37.5805 27.341 39.4896 25.4352 39.4896 23.0796C39.4896 20.7273 37.5838 18.8182 35.2282 18.8182Z" fill="url(#paint2_linear_38_36)"/>
<path d="M41.0923 50.4905C37.9004 43.8335 27.6717 23.756 25.1395 18.9082C30.4671 13.7205 35.5115 7.81319 38.9666 3.55846C39.1232 3.6051 39.2864 3.62842 39.4564 3.62842C40.4326 3.62842 41.2256 2.83545 41.2256 1.85923C41.2256 0.883001 40.4326 0.0900269 39.4564 0.0900269C38.4801 0.0900269 37.6872 0.883001 37.6872 1.85923C37.6872 2.10911 37.7405 2.34567 37.8304 2.55891C34.2121 6.78033 29.2643 12.1212 24.2699 16.979C20.7582 10.392 18.256 6.6204 15.4006 4.83454C13.5981 3.70839 10.6794 3.80834 8.11389 5.89073C2.01665 10.8352 -0.942008 19.7445 1.46024 26.5347C2.35317 29.0536 4.31894 30.1064 6.4713 30.3963C11.1092 31.0293 16.4268 28.124 22.8605 22.0101C25.5593 27.2177 33.8356 43.2005 37.8737 51.7633C37.1241 52.5329 36.661 53.5791 36.661 54.7386C36.661 57.0909 38.5701 59 40.9224 59C43.2746 59 45.1838 57.0942 45.1838 54.7386C45.1838 52.4463 43.3646 50.5805 41.0923 50.4905ZM11.9055 26.2415C10.3296 26.8646 6.16477 27.9074 4.84204 23.2096C4.30561 21.3004 4.31228 15.503 7.0577 11.5948C8.83023 9.07262 11.6056 6.22058 14.7642 8.95601C17.0998 10.9784 18.4959 14.037 21.3646 19.4613C17.1231 23.4928 15.0074 25.0154 11.9055 26.2415Z" fill="url(#paint3_linear_38_36)"/>
<defs>
<linearGradient id="paint0_linear_38_36" x1="5.08434" y1="-6.13928" x2="57.7895" y2="23.112" gradientUnits="userSpaceOnUse">
<stop stop-color="#3A8CE5"/>
<stop offset="1" stop-color="#954AAC"/>
</linearGradient>
<linearGradient id="paint1_linear_38_36" x1="1.99673" y1="-0.575894" x2="54.7018" y2="28.6755" gradientUnits="userSpaceOnUse">
<stop stop-color="#3A8CE5"/>
<stop offset="1" stop-color="#954AAC"/>
</linearGradient>
<linearGradient id="paint2_linear_38_36" x1="-0.214409" y1="3.40853" x2="52.4907" y2="32.6599" gradientUnits="userSpaceOnUse">
<stop stop-color="#3A8CE5"/>
<stop offset="1" stop-color="#954AAC"/>
</linearGradient>
<linearGradient id="paint3_linear_38_36" x1="-1.86686" y1="6.38601" x2="50.8383" y2="35.6374" gradientUnits="userSpaceOnUse">
<stop stop-color="#3A8CE5"/>
<stop offset="1" stop-color="#954AAC"/>
</linearGradient>
</defs>
</svg>
