<svg width="233" height="46" viewBox="0 0 233 46" fill="none" xmlns="http://www.w3.org/2000/svg"><path d="M38.7902 0.697571L12.5806 45.6976H21.4919L38.7902 15.6976L56.6128 45.6976H64.9999L38.7902 0.697571Z" fill="white"/><path d="M56.6129 45.6976L46.6532 29.1459L2.09677 3.80103L0 7.42172L56.6129 45.6976Z" fill="white"/><path d="M76.2617 34.3908L83.6777 17.5908H88.3577L95.7977 34.3908H90.8537L85.0457 19.9188H86.9177L81.1097 34.3908H76.2617ZM80.3177 31.1268L81.5417 27.6228H89.7497L90.9737 31.1268H80.3177ZM103.049 34.7268C101.673 34.7268 100.345 34.5588 99.0648 34.2228C97.8008 33.8708 96.7688 33.4228 95.9688 32.8788L97.5288 29.3748C98.2808 29.8548 99.1448 30.2548 100.121 30.5748C101.113 30.8788 102.097 31.0308 103.073 31.0308C103.729 31.0308 104.257 30.9748 104.657 30.8628C105.057 30.7348 105.345 30.5748 105.521 30.3828C105.713 30.1748 105.809 29.9348 105.809 29.6628C105.809 29.2788 105.633 28.9748 105.281 28.7508C104.929 28.5268 104.473 28.3428 103.913 28.1988C103.353 28.0548 102.729 27.9108 102.041 27.7668C101.369 27.6228 100.689 27.4388 100.001 27.2148C99.3288 26.9908 98.7128 26.7028 98.1528 26.3508C97.5928 25.9828 97.1368 25.5108 96.7848 24.9348C96.4328 24.3428 96.2568 23.5988 96.2568 22.7028C96.2568 21.6948 96.5288 20.7828 97.0728 19.9668C97.6328 19.1508 98.4648 18.4948 99.5688 17.9988C100.673 17.5028 102.049 17.2548 103.697 17.2548C104.801 17.2548 105.881 17.3828 106.937 17.6388C108.009 17.8788 108.961 18.2388 109.793 18.7188L108.329 22.2468C107.529 21.8148 106.737 21.4948 105.953 21.2868C105.169 21.0628 104.409 20.9508 103.673 20.9508C103.017 20.9508 102.489 21.0228 102.089 21.1668C101.689 21.2948 101.401 21.4708 101.225 21.6948C101.049 21.9188 100.961 22.1748 100.961 22.4628C100.961 22.8308 101.129 23.1268 101.465 23.3508C101.817 23.5588 102.273 23.7348 102.833 23.8788C103.409 24.0068 104.033 24.1428 104.705 24.2868C105.393 24.4308 106.073 24.6148 106.745 24.8388C107.433 25.0468 108.057 25.3348 108.617 25.7028C109.177 26.0548 109.625 26.5268 109.961 27.1188C110.313 27.6948 110.489 28.4228 110.489 29.3028C110.489 30.2788 110.209 31.1828 109.649 32.0148C109.105 32.8308 108.281 33.4868 107.177 33.9828C106.089 34.4788 104.713 34.7268 103.049 34.7268ZM116.026 34.3908V21.3588H110.866V17.5908H125.914V21.3588H120.778V34.3908H116.026ZM127.684 34.3908V17.5908H135.364C136.9 17.5908 138.22 17.8388 139.324 18.3348C140.444 18.8308 141.308 19.5508 141.916 20.4948C142.524 21.4228 142.828 22.5268 142.828 23.8068C142.828 25.0708 142.524 26.1668 141.916 27.0948C141.308 28.0068 140.444 28.7108 139.324 29.2068C138.22 29.6868 136.9 29.9268 135.364 29.9268H130.324L132.436 27.9348V34.3908H127.684ZM138.076 34.3908L133.9 28.2708H138.964L143.164 34.3908H138.076ZM132.436 28.4388L130.324 26.2548H135.076C136.068 26.2548 136.804 26.0388 137.284 25.6068C137.78 25.1748 138.028 24.5748 138.028 23.8068C138.028 23.0228 137.78 22.4148 137.284 21.9828C136.804 21.5508 136.068 21.3348 135.076 21.3348H130.324L132.436 19.1508V28.4388ZM149.818 24.0948H157.618V27.6468H149.818V24.0948ZM150.154 30.7188H158.938V34.3908H145.45V17.5908H158.626V21.2628H150.154V30.7188ZM161.575 34.3908V17.5908H165.487L174.751 28.7748H172.903V17.5908H177.559V34.3908H173.647L164.383 23.2068H166.231V34.3908H161.575ZM178.894 34.3908L186.31 17.5908H190.99L198.43 34.3908H193.486L187.678 19.9188H189.55L183.742 34.3908H178.894ZM182.95 31.1268L184.174 27.6228H192.382L193.606 31.1268H182.95ZM204.746 34.3908L212.162 17.5908H216.842L224.282 34.3908H219.338L213.53 19.9188H215.402L209.594 34.3908H204.746ZM208.802 31.1268L210.026 27.6228H218.234L219.458 31.1268H208.802ZM225.629 34.3908V17.5908H230.381V34.3908H225.629Z" fill="white"/></svg>