<svg width="105" height="33" viewBox="0 0 105 33" fill="none" xmlns="http://www.w3.org/2000/svg">
<path d="M60.8359 24.4075L64.8196 20.7984H61.2105L61.1798 20.3132H65.6487V24.7821L65.1635 24.7514V21.1423L61.1798 24.7514L60.8359 24.4075Z" fill="#FFD000"/>
<path d="M2.00068 31.4234H11.747V32.6764H0.65918V20.2539H2.00068V31.4234Z" fill="white"/>
<path d="M12.8809 32.6762L19.5901 20.2537H21.6398L28.349 32.6762H26.7845L25.1263 29.5608H16.032L14.3739 32.6762H12.8826H12.8809ZM24.4351 28.3078L20.5962 21.1474L16.7573 28.3078H24.4351Z" fill="white"/>
<path d="M29.2783 20.252H38.8936C41.9868 20.252 43.4033 21.3075 43.4033 23.4389C43.4033 25.3541 42.3971 25.9448 41.7826 26.1236C42.2116 26.2138 43.7761 26.8046 43.7761 29.0228C43.7761 31.779 42.2116 32.6745 39.2289 32.6745H29.2783V20.252ZM30.6198 25.5516H39.4162C41.168 25.5516 42.0618 25.1583 42.0618 23.5819C42.0618 22.2216 41.3535 21.5049 39.4162 21.5049H30.6198V25.5499V25.5516ZM30.6198 31.4232H39.7516C41.5034 31.4232 42.4346 30.7422 42.4346 29.0245C42.4346 27.3068 41.4097 26.8045 39.6392 26.8045H30.6198V31.4232Z" fill="white"/>
<path d="M49.5528 20.252H56.0748C58.945 20.252 60.4721 21.3977 60.4721 23.7606H59.1306C59.1306 22.4174 58.3288 21.5049 55.7956 21.5049H49.5715C47.1677 21.5049 46.6825 22.2574 46.6825 23.7606C46.6825 25.1209 47.2052 25.6588 49.9989 25.6588H55.7751C59.1289 25.6588 60.5828 26.5543 60.5828 29.1675C60.5828 31.7807 59.3162 32.6762 56.3335 32.6762H49.6618C47.0894 32.6762 45.45 31.5305 45.45 29.1318H46.7915C46.7915 30.492 47.5559 31.4232 50.1078 31.4232H56.2195C58.2317 31.4232 59.2379 30.7422 59.2379 29.1318C59.2379 27.5213 58.5671 26.9118 56.1258 26.9118H49.6226C46.1378 26.9118 45.3359 25.8376 45.3359 23.7606C45.3359 21.2547 46.64 20.252 49.5477 20.252H49.5528Z" fill="white"/>
<path d="M45.0369 16.4964L53.5608 0.420532H59.2588L67.713 16.4964H63.1965L61.1349 12.443H51.615L49.5295 16.4964H45.0352H45.0369ZM59.5823 9.40928L56.5248 3.4321H56.3392L53.1659 9.40928H59.5823Z" fill="#FFD000"/>
<path d="M82.887 16.4964V13.9939C82.887 12.4192 82.0528 11.7246 79.8294 11.7246H72.3711V16.4964H68.5254V0.420532H80.7334C84.0684 0.420532 86.4552 1.51008 86.4552 6.07255C86.4552 8.52743 85.2976 9.57102 84.1161 10.2656C85.7147 10.7985 86.7344 11.4232 86.7344 13.1614V16.4964H82.8887H82.887ZM72.3694 8.52914H80.4065C82.0511 8.52914 82.6078 7.81071 82.6078 6.07425C82.6078 4.33779 82.1209 3.61937 80.4065 3.61937H72.3694V8.53084V8.52914Z" fill="#FFD000"/>
<path d="M87.9365 0.420517H104.36V3.45422H91.7823V6.97481H103.966V9.77699H91.7823V13.4593H104.36V16.493H87.9365V0.417114V0.420517Z" fill="#FFD000"/>
<path d="M22.6594 0.420532H18.6758L19.9628 3.72832H23.9516L22.6594 0.420532Z" fill="#FFD000"/>
<path d="M50.2021 0.420532H46.2168L44.2471 5.58736H48.2001L50.2021 0.420532Z" fill="#FFD000"/>
<path d="M41.028 13.301L36.4417 0.420532H32.4342L27.8956 13.301H27.6862L24.1196 4.16414H20.1309L24.93 16.4964H30.582L31.0008 15.315H28.8523V14.8791H31.154L34.4499 5.56353L38.3178 16.4964H43.9698L48.03 6.02148H44.0821L41.3072 13.301H41.028Z" fill="#FFD000"/>
<path d="M41.3037 5.5874V6.02152H44.0821L44.2472 5.5874H41.3037Z" fill="#FFD000"/>
<path d="M17.5146 3.72833V4.16415H20.1313L19.9627 3.72833H17.5146Z" fill="#FFD000"/>
<path d="M24.5777 4.16409H24.7173H28.6669V3.72827H24.7173H24.5777H23.9512L24.1197 4.16409H24.5777Z" fill="#FFD000"/>
<path d="M18.9717 14.3531C19.3275 13.5223 19.4552 12.4072 19.4637 10.9364H15.5958C15.5958 12.8822 14.8076 13.2993 12.5145 13.2993H7.58085C5.37963 13.2993 4.47735 12.8363 4.47735 10.3814V9.554H2.46169V9.11818H4.47735V6.39773C4.47735 3.87305 5.01021 3.43212 7.58085 3.43212H12.5145C14.7378 3.43212 15.5958 4.15054 15.5958 5.84104H19.4416C19.4416 1.32453 17.0565 0.234985 13.2567 0.234985H6.86414C2.13823 0.234985 0.633299 1.55606 0.633299 6.25813V9.14883H0V13.238H0.743954V14.8792H4.69356V15.315L2.60299 15.3218V16.4982H13.6517C14.3139 16.4965 14.9012 16.4709 15.4273 16.4164V15.7014H16.7279V15.3848H15.4273V14.3531H18.9734H18.9717Z" fill="#FFD000"/>
</svg>
