<svg width="110" height="36" viewBox="0 0 110 36" fill="none" xmlns="http://www.w3.org/2000/svg">
<path d="M107.451 2.42296C107.732 2.35358 107.968 2.64234 107.839 2.8985C107.47 3.6286 107.514 4.49662 107.954 5.18958C108.107 5.43202 107.903 5.74007 107.616 5.69814C106.796 5.57822 105.97 5.88787 105.439 6.51292C105.253 6.73138 104.892 6.63511 104.843 6.35341C104.706 5.54793 104.153 4.87005 103.385 4.56452C103.116 4.45766 103.098 4.08879 103.355 3.95692C104.088 3.57962 104.572 2.85058 104.63 2.03575C104.65 1.75083 104.999 1.61978 105.206 1.82003C105.798 2.39239 106.648 2.62069 107.451 2.42296Z" fill="#79E0FF"/>
<path fill-rule="evenodd" clip-rule="evenodd" d="M15.1406 25.3101V25.3095C11.9854 25.3026 9.42969 22.7798 9.42969 19.6687C9.42969 16.6338 11.8617 14.1586 14.9099 14.0328L14.9109 14.0285C17.2477 13.9636 18.8667 14.2028 19.4688 14.3322V16.2958C18.7223 16.1237 16.5019 15.8961 14.9468 15.9796L14.9468 15.9812C12.9749 16.078 11.4062 17.6843 11.4062 19.6517C11.4062 21.6814 13.0759 23.3268 15.1355 23.3268C15.1536 23.3268 15.1718 23.3267 15.1898 23.3264L15.1899 23.3277C16.5046 23.3258 17.3781 23.2505 17.9493 23.1637V20.5413L19.9297 19.9816L19.9297 24.6542L19.9361 24.6657C19.9361 24.6657 18.7071 25.3101 15.1406 25.3101Z" fill="#F2FCFF"/>
<path fill-rule="evenodd" clip-rule="evenodd" d="M43.5977 25.3101V25.3095C40.446 25.2985 37.8945 22.7772 37.8945 19.6687C37.8945 16.6364 40.3224 14.1629 43.3669 14.0331L43.3679 14.0285C45.7201 13.9632 47.3449 14.2059 47.9375 14.3347V16.2985C47.2029 16.1262 44.9671 15.8956 43.4038 15.9796L43.4039 15.9816C41.4356 16.0822 39.8711 17.6869 39.8711 19.6517C39.8711 21.6814 41.5407 23.3268 43.6003 23.3268L43.6469 23.3265L43.6469 23.3277C44.9676 23.3258 45.8431 23.2498 46.4141 23.1625V20.5435L48.3945 19.9839L48.3945 24.6656L48.393 24.6655L48.3931 24.6657C48.3931 24.6657 47.1642 25.3101 43.5977 25.3101Z" fill="#F2FCFF"/>
<path fill-rule="evenodd" clip-rule="evenodd" d="M59.3361 14.0118H57.0527L62.1148 25.2599H63.4021V24.6719H64.1336L59.3361 14.0118Z" fill="#F2FCFF"/>
<path d="M71.0668 21.4893L70.1133 24.5392L70.7489 25.9457L72.8466 25.2912L71.0668 21.4893Z" fill="#F2FCFF"/>
<path fill-rule="evenodd" clip-rule="evenodd" d="M30.6074 14.0142H28.324L23.262 25.2623H25.5454L30.6074 14.0142Z" fill="#F2FCFF"/>
<path fill-rule="evenodd" clip-rule="evenodd" d="M59.3184 14.0142H57.035L51.9729 25.2623H54.2563L59.3184 14.0142Z" fill="#F2FCFF"/>
<path fill-rule="evenodd" clip-rule="evenodd" d="M28.4551 14.0142H30.7385L35.8005 25.2623H33.5171L28.4551 14.0142Z" fill="#F2FCFF"/>
<path fill-rule="evenodd" clip-rule="evenodd" d="M80.2227 14.0142H82.2099V25.2623H80.2227V14.0142Z" fill="#F2FCFF"/>
<path fill-rule="evenodd" clip-rule="evenodd" d="M87.3438 14.5202L89.1348 14.0141H89.3304V14.0141H89.7436L95.9297 22.5919V14.0141H97.9163V24.5868L95.5264 25.2622H95.4577L89.3304 16.766V25.2622H87.3438V14.5202Z" fill="#F2FCFF"/>
<path fill-rule="evenodd" clip-rule="evenodd" d="M65.3516 14.0129L71.9986 14.0129L71.9988 14.0152C72.0204 14.0148 72.042 14.0146 72.0637 14.0146C74.0341 14.0146 75.6313 15.5888 75.6313 17.5305C75.6313 19.2209 74.4209 20.6326 72.8075 20.9698L71.074 21.4666L72.793 25.2522H70.4004L68.1597 20.2822L69.6703 19.8526L69.671 19.8502L72.4175 19.0776L72.4172 19.075C73.1361 18.9152 73.673 18.2818 73.673 17.5247C73.673 16.669 72.987 15.9713 72.1277 15.9369L72.1284 15.9483H67.4105C66.6922 15.9483 66.0401 15.5284 65.7429 14.8744L65.3516 14.0129Z" fill="#F2FCFF"/>
<path fill-rule="evenodd" clip-rule="evenodd" d="M103.511 4.59154C81.3951 18.6801 47.9676 32.5908 18.6125 34.3232C13.644 34.6164 9.77586 34.2504 6.9799 33.3844C4.18194 32.5178 2.50986 31.0993 1.82598 29.4519C1.49693 28.6592 1.51476 27.6428 1.82598 26.6362C2.70414 23.7959 4.54067 22.6269 6.9091 21.1194L6.9799 21.0744C3.97764 22.1867 1.12477 24.5403 0.25675 27.0971C-0.138493 28.2614 -0.0555415 29.5745 0.356001 30.5659C1.14718 32.4719 3.34283 34.0464 6.49189 34.9876C9.64506 35.93 12.8955 36.1977 18.6125 35.8603C32.5803 35.036 49.4064 30.8191 62.3765 25.7363C63.9384 25.1242 65.5105 24.5169 67.1013 23.9023C77.958 19.7082 89.6932 15.1747 105.09 6.46275L105.061 6.2648C104.95 5.49906 104.407 4.86604 103.667 4.63943L103.511 4.59154Z" fill="url(#paint0_linear_4007_2209)"/>
<defs>
<linearGradient id="paint0_linear_4007_2209" x1="99.0585" y1="45.2633" x2="-0.0686104" y2="13.7989" gradientUnits="userSpaceOnUse">
<stop stop-color="#01CFFF"/>
<stop offset="0.471311" stop-color="#0096FF"/>
<stop offset="0.853052" stop-color="#3A5FFF"/>
<stop offset="1" stop-color="#4A32F0" stop-opacity="0"/>
</linearGradient>
</defs>
</svg>
