<svg width="87" height="20" viewBox="0 0 87 20" fill="none" xmlns="http://www.w3.org/2000/svg">
<path d="M68.4785 10.0001C68.4785 9.47941 68.4785 8.99725 68.4591 8.55367C68.4397 8.11008 68.4009 7.68578 68.3427 7.31934C68.2846 6.93361 68.1682 6.58645 67.9937 6.2393C67.8385 5.89214 67.5864 5.58356 67.2955 5.27498C66.8688 4.85068 66.4034 4.54209 65.8797 4.31066C65.3561 4.09851 64.7549 3.9635 64.0761 3.9635C63.3974 3.9635 62.7961 4.07922 62.2725 4.31066C61.7489 4.52281 61.264 4.85068 60.8374 5.27498C60.5271 5.58356 60.3138 5.89214 60.1586 6.2393C60.0035 6.58645 59.8677 6.93361 59.8095 7.31934C59.7513 7.70507 59.7126 8.11008 59.6932 8.55367C59.6738 8.99725 59.6738 9.47941 59.6738 10.0001C59.6738 10.5209 59.6738 10.9838 59.6932 11.4466C59.7126 11.8902 59.7513 12.3145 59.8095 12.681C59.8677 13.0667 59.9841 13.4138 60.1586 13.761C60.3138 14.1081 60.5659 14.4167 60.8374 14.7253C61.264 15.1496 61.7295 15.4582 62.2725 15.6896C62.7961 15.9018 63.3974 16.0368 64.0761 16.0368C64.7549 16.0368 65.3367 15.9211 65.8797 15.6896C66.4034 15.4775 66.8882 15.1496 67.2955 14.7253C67.6058 14.4167 67.8191 14.1081 67.9937 13.761C68.1488 13.4138 68.2846 13.0667 68.3427 12.681C68.4009 12.2952 68.4591 11.8902 68.4591 11.4466C68.4785 10.9645 68.4785 10.5209 68.4785 10.0001ZM66.1707 10.0001C66.1707 10.5595 66.1706 11.0416 66.1513 11.4273C66.1319 11.8131 66.1125 12.1024 66.0543 12.3531C66.0155 12.5845 65.9573 12.7967 65.8797 12.9317C65.8022 13.086 65.7246 13.2403 65.5888 13.356C65.4337 13.5488 65.201 13.7031 64.9682 13.8189C64.7161 13.9346 64.4252 13.9731 64.0955 13.9924C63.7658 13.9924 63.4943 13.9346 63.2228 13.8189C62.9707 13.7031 62.7574 13.5681 62.5828 13.356C62.4665 13.2403 62.3889 13.1053 62.2919 12.9317C62.2143 12.7774 62.1562 12.5845 62.1174 12.3531C62.0786 12.1216 62.0398 11.8131 62.0398 11.4273C62.0204 11.0416 62.0204 10.5787 62.0204 10.0001C62.0204 9.44084 62.0204 8.95868 62.0398 8.57295C62.0592 8.18722 62.0786 7.89793 62.1174 7.64721C62.1562 7.39648 62.2143 7.20362 62.2919 7.06861C62.3695 6.91432 62.4471 6.76003 62.5828 6.64431C62.738 6.45145 62.9707 6.29716 63.2228 6.18144C63.4749 6.06572 63.7658 6.02715 64.0955 6.00786C64.4252 6.00786 64.6967 6.06572 64.9682 6.18144C65.201 6.29716 65.4337 6.43216 65.5888 6.64431C65.7052 6.76003 65.7828 6.89504 65.8797 7.06861C65.9573 7.2229 66.0155 7.41577 66.0543 7.64721C66.0931 7.87864 66.1319 8.18722 66.1513 8.57295C66.1513 8.95868 66.1707 9.44084 66.1707 10.0001Z" fill="#00B48D"/>
<path d="M86.9999 4.27221C86.9999 4.15649 86.903 4.07935 86.806 4.07935H84.9054C84.7891 4.07935 84.7115 4.17578 84.7115 4.27221V11.331L80.0376 4.13721C79.9988 4.09863 79.9794 4.07935 79.9212 4.07935H78.137C78.0401 4.07935 77.9431 4.17578 77.9431 4.27221C77.9431 8.09092 77.9431 11.9096 77.9431 15.6898C77.9431 15.8055 78.0401 15.8826 78.137 15.8826H80.0376C80.154 15.8826 80.2315 15.7862 80.2315 15.6898V8.61165L84.9054 15.8248C84.9442 15.8633 84.9636 15.8826 85.0218 15.8826H86.806C86.9224 15.8826 86.9999 15.7862 86.9999 15.6898V4.27221Z" fill="#00B48D"/>
<path d="M74.1417 4.27209C74.1417 4.15637 74.0448 4.07922 73.9478 4.07922H72.0472C71.9308 4.07922 71.8533 4.17566 71.8533 4.27209V15.6896C71.8533 15.8054 71.9502 15.8825 72.0472 15.8825H73.9478C74.0641 15.8825 74.1417 15.7861 74.1417 15.6896V4.27209Z" fill="#00B48D"/>
<path d="M51.2184 10.0001C51.2184 9.44084 51.2184 8.95868 51.2378 8.57295C51.2572 8.18722 51.2766 7.89793 51.3154 7.6472C51.4899 6.62503 52.2851 6.02715 53.2936 6.02715C53.9529 6.02715 54.5347 6.25858 54.9226 6.81789C55.0778 7.04933 55.2135 7.33862 55.2911 7.66649C55.2911 7.70507 55.3105 7.72435 55.3493 7.72435H57.5989C57.6377 7.72435 57.6377 7.70507 57.6377 7.66649C57.405 6.29716 56.6487 5.02425 55.3299 4.40709C54.7287 4.11779 54.0305 3.9635 53.2548 3.9635C51.9942 3.9635 50.9081 4.40709 50.0354 5.25569C49.5312 5.75714 49.2209 6.35502 49.0657 7.03004C48.93 7.68578 48.8718 8.66938 48.8718 9.96157C48.8718 11.2538 48.93 12.2374 49.0657 12.8931C49.2015 13.5681 49.5506 14.166 50.0354 14.6675C50.9081 15.5353 51.9748 15.9596 53.2548 15.9596C54.0111 15.9596 54.7093 15.8246 55.3299 15.5161C56.6293 14.8989 57.405 13.6646 57.6377 12.2567C57.6377 12.2181 57.6377 12.1988 57.5989 12.1988H55.3493C55.3105 12.1988 55.2911 12.2181 55.2911 12.2567C55.2135 12.5845 55.0972 12.8545 54.9226 13.1053C54.5347 13.6453 53.9529 13.8767 53.2936 13.896C52.2851 13.896 51.5093 13.2981 51.3154 12.2759C51.2766 12.0445 51.2378 11.7359 51.2378 11.3502C51.2184 11.0416 51.2184 10.5595 51.2184 10.0001Z" fill="#00B48D"/>
<path d="M27.403 4.27209C27.403 4.15637 27.306 4.07922 27.209 4.07922H25.3085C25.1921 4.07922 25.1145 4.17566 25.1145 4.27209V15.6896C25.1145 15.8054 25.2115 15.8825 25.3085 15.8825H27.209C27.3254 15.8825 27.403 15.7861 27.403 15.6896V12.3338L28.9545 10.5016L32.1156 15.8439C32.135 15.8825 32.1738 15.9018 32.232 15.9018H34.5592C34.6562 15.9018 34.6756 15.8439 34.6368 15.7475L30.506 8.7851L34.3071 4.2528C34.3847 4.15637 34.3459 4.07922 34.2296 4.07922H31.6696C31.6308 4.07922 31.6114 4.07922 31.592 4.1178L27.403 9.0744V4.27209Z" fill="#00B48D"/>
<path d="M41.3661 13.9539C40.2801 13.9539 39.3104 12.951 39.3104 11.7745V4.29137C39.3104 4.17566 39.2134 4.09851 39.1165 4.09851H37.2159C37.0995 4.09851 37.0219 4.19494 37.0219 4.29137V11.7552C37.0219 14.3782 39.0001 16.0368 41.4049 16.0368C43.8097 16.0368 45.7879 14.3782 45.7879 11.7552V4.29137C45.7879 4.17566 45.6909 4.09851 45.5939 4.09851H43.6934C43.577 4.09851 43.4994 4.19494 43.4994 4.29137V11.7745C43.4025 12.951 42.4328 13.9539 41.3661 13.9539Z" fill="#00B48D"/>
<path d="M5.79871 10L11.7526 15.9209L15.5149 12.1794C16.1743 11.5236 17.2604 11.5236 17.9198 12.1794C18.5791 12.8351 18.5791 13.9151 17.9198 14.5709L12.955 19.5082C12.2956 20.1639 11.2095 20.1639 10.5502 19.5082L3.41329 12.3915V16.6345C3.41329 17.5603 2.65693 18.3317 1.70664 18.3317C0.756354 18.3317 0 17.5796 0 16.6345V3.40405C0 2.45902 0.756354 1.70685 1.70664 1.70685C2.65693 1.70685 3.41329 2.45902 3.41329 3.40405V7.60849L10.5696 0.491803C11.2289 -0.163934 12.315 -0.163934 12.9744 0.491803L17.9392 5.42912C18.5985 6.08486 18.5985 7.1649 17.9392 7.82064C17.2798 8.47637 16.1937 8.47637 15.5343 7.82064L11.772 4.07907L5.79871 10ZM11.772 8.3028C10.8217 8.3028 10.0653 9.05497 10.0653 10C10.0653 10.945 10.8217 11.6972 11.772 11.6972C12.7222 11.6972 13.4786 10.945 13.4786 10C13.4592 9.05497 12.7029 8.3028 11.772 8.3028Z" fill="#00B48D"/>
</svg>
