<svg xmlns="http://www.w3.org/2000/svg" viewBox="0 0 270 270" fill="none"> <g filter="url(#filter0_ii_857_2197)"> <path d="M270 135C270 209.5585 209.5585 270 135 270C60.4415 270 0 209.5585 0 135C0 60.4415 60.4415 0 135 0C209.5585 0 270 60.4415 270 135ZM36.5555 135C36.5555 189.3695 80.6305 233.4445 135 233.4445C189.3695 233.4445 233.4445 189.3695 233.4445 135C233.4445 80.6305 189.3695 36.5555 135 36.5555C80.6305 36.5555 36.5555 80.6305 36.5555 135Z" fill="url(#paint0_linear_857_2197)"></path> </g> <path d="M269.5 135C269.5 209.28225 209.28225 269.5 135 269.5C60.71775 269.5 0.5 209.28225 0.5 135C0.5 60.71775 60.71775 0.5 135 0.5C209.28225 0.5 269.5 60.71775 269.5 135ZM36.0555 135C36.0555 189.6455 80.3545 233.9445 135 233.9445C189.6455 233.9445 233.9445 189.6455 233.9445 135C233.9445 80.3545 189.6455 36.0555 135 36.0555C80.3545 36.0555 36.0555 80.3545 36.0555 135Z" stroke="url(#paint1_linear_857_2197)"></path> <defs> <filter id="filter0_ii_857_2197" x="-10" y="0" width="284" height="274" filterUnits="userSpaceOnUse" color-interpolation-filters="sRGB"> <feFlood flood-opacity="0" result="BackgroundImageFix"></feFlood> <feBlend mode="normal" in="SourceGraphic" in2="BackgroundImageFix" result="shape"></feBlend> <feColorMatrix in="SourceAlpha" type="matrix" values="0 0 0 0 0 0 0 0 0 0 0 0 0 0 0 0 0 0 127 0" result="hardAlpha"></feColorMatrix> <feOffset dx="4" dy="4"></feOffset> <feGaussianBlur stdDeviation="5"></feGaussianBlur> <feComposite in2="hardAlpha" operator="arithmetic" k2="-1" k3="1"></feComposite> <feColorMatrix type="matrix" values="0 0 0 0 0 0 0 0 0 0 0 0 0 0 0 0 0 0 0.8 0"></feColorMatrix> <feBlend mode="normal" in2="shape" result="effect1_innerShadow_857_2197"></feBlend> <feColorMatrix in="SourceAlpha" type="matrix" values="0 0 0 0 0 0 0 0 0 0 0 0 0 0 0 0 0 0 127 0" result="hardAlpha"></feColorMatrix> <feOffset dx="-16" dy="1"></feOffset> <feGaussianBlur stdDeviation="5"></feGaussianBlur> <feComposite in2="hardAlpha" operator="arithmetic" k2="-1" k3="1"></feComposite> <feColorMatrix type="matrix" values="0 0 0 0 1 0 0 0 0 1 0 0 0 0 1 0 0 0 0.8 0"></feColorMatrix> <feBlend mode="normal" in2="effect1_innerShadow_857_2197" result="effect2_innerShadow_857_2197"></feBlend> </filter> <linearGradient id="paint0_linear_857_2197" x1="92" y1="184" x2="1300" y2="984" gradientUnits="userSpaceOnUse"> <stop stop-color="#636363"></stop> <stop offset="0.102836" stop-color="white"></stop> <stop offset="0.21" stop-color="#7D7D7D"></stop> <stop offset="0.325" stop-color="white"></stop> <stop offset="0.42" stop-color="white"></stop> <stop offset="0.5" stop-color="#868686"></stop> <stop offset="0.585" stop-color="white"></stop> <stop offset="0.685" stop-color="#B1B1B1"></stop> <stop offset="0.765" stop-color="#4A4A4A"></stop> <stop offset="0.83" stop-color="white"></stop> <stop offset="0.92" stop-color="#999999"></stop> </linearGradient> <linearGradient id="paint1_linear_857_2197" x1="540" y1="0" x2="540" y2="1080" gradientUnits="userSpaceOnUse"> <stop stop-color="white"></stop> <stop offset="1" stop-color="#999999"></stop> </linearGradient> </defs> </svg>
