<svg width="678" height="233" viewBox="0 0 678 233" fill="none" xmlns="http://www.w3.org/2000/svg">
<path d="M483.233 232V185.455H493.074V223.886H513.028V232H483.233Z" fill="white"/>
<path d="M528.756 232H518.21L534.278 185.455H546.96L563.006 232H552.46L540.801 196.091H540.438L528.756 232ZM528.097 213.705H553.006V221.386H528.097V213.705Z" fill="white"/>
<path d="M568.608 232V185.455H587.244C590.669 185.455 593.525 185.962 595.812 186.977C598.1 187.992 599.82 189.402 600.972 191.205C602.123 192.992 602.699 195.053 602.699 197.386C602.699 199.205 602.335 200.803 601.608 202.182C600.881 203.545 599.881 204.667 598.608 205.545C597.35 206.409 595.911 207.023 594.29 207.386V207.841C596.062 207.917 597.722 208.417 599.267 209.341C600.828 210.265 602.093 211.561 603.062 213.227C604.032 214.879 604.517 216.849 604.517 219.136C604.517 221.606 603.903 223.811 602.676 225.75C601.464 227.674 599.669 229.197 597.29 230.318C594.911 231.439 591.979 232 588.494 232H568.608ZM578.449 223.955H586.472C589.214 223.955 591.214 223.432 592.472 222.386C593.729 221.326 594.358 219.917 594.358 218.159C594.358 216.871 594.047 215.735 593.426 214.75C592.805 213.765 591.919 212.992 590.767 212.432C589.631 211.871 588.275 211.591 586.699 211.591H578.449V223.955ZM578.449 204.932H585.744C587.093 204.932 588.29 204.697 589.335 204.227C590.396 203.742 591.229 203.061 591.835 202.182C592.456 201.303 592.767 200.25 592.767 199.023C592.767 197.341 592.169 195.985 590.972 194.955C589.79 193.924 588.108 193.409 585.926 193.409H578.449V204.932Z" fill="white"/>
<path d="M636.17 198.841C635.989 197.008 635.208 195.583 633.83 194.568C632.451 193.553 630.58 193.045 628.216 193.045C626.61 193.045 625.254 193.273 624.148 193.727C623.042 194.167 622.193 194.78 621.602 195.568C621.027 196.356 620.739 197.25 620.739 198.25C620.708 199.083 620.883 199.811 621.261 200.432C621.655 201.053 622.193 201.591 622.875 202.045C623.557 202.485 624.345 202.871 625.239 203.205C626.133 203.523 627.087 203.795 628.102 204.023L632.284 205.023C634.314 205.477 636.178 206.083 637.875 206.841C639.572 207.599 641.042 208.53 642.284 209.636C643.527 210.742 644.489 212.045 645.17 213.545C645.867 215.045 646.224 216.765 646.239 218.705C646.224 221.553 645.496 224.023 644.057 226.114C642.633 228.189 640.572 229.803 637.875 230.955C635.193 232.091 631.958 232.659 628.17 232.659C624.413 232.659 621.14 232.083 618.352 230.932C615.58 229.78 613.413 228.076 611.852 225.818C610.307 223.545 609.496 220.735 609.42 217.386H618.943C619.049 218.947 619.496 220.25 620.284 221.295C621.087 222.326 622.155 223.106 623.489 223.636C624.837 224.152 626.36 224.409 628.057 224.409C629.724 224.409 631.17 224.167 632.398 223.682C633.64 223.197 634.602 222.523 635.284 221.659C635.966 220.795 636.307 219.803 636.307 218.682C636.307 217.636 635.996 216.758 635.375 216.045C634.769 215.333 633.875 214.727 632.693 214.227C631.526 213.727 630.095 213.273 628.398 212.864L623.33 211.591C619.405 210.636 616.307 209.144 614.034 207.114C611.761 205.083 610.633 202.349 610.648 198.909C610.633 196.091 611.383 193.629 612.898 191.523C614.428 189.417 616.526 187.773 619.193 186.591C621.86 185.409 624.89 184.818 628.284 184.818C631.739 184.818 634.754 185.409 637.33 186.591C639.92 187.773 641.936 189.417 643.375 191.523C644.814 193.629 645.557 196.068 645.602 198.841H636.17Z" fill="white"/>
<path d="M274 3.54937e-05C316.668 0.0147676 359.332 -0.00880352 402 0.0118215C401.981 9.3078 401.99 18.6038 401.994 27.9027C369.49 27.9086 336.986 27.8762 304.482 27.9174C294.299 18.6332 284.161 9.30486 274 3.54937e-05Z" fill="url(#paint0_linear_13_222)"/>
<path d="M274 44.8673C284.149 54.2254 294.311 63.5716 304.473 72.9178C336.982 72.9237 369.491 72.9208 402 72.9208C401.997 82.27 402 91.6221 402 100.974C369.484 100.968 336.972 100.977 304.46 100.968C304.476 114.287 304.466 127.61 304.463 140.929C336.972 140.92 369.481 140.926 401.994 140.926C401.997 150.284 401.99 159.642 401.997 169C359.332 168.997 316.668 169 274.003 168.997C273.997 127.621 274.006 86.2429 274 44.8673Z" fill="white"/>
<path d="M540 169C497.332 168.985 454.668 169.009 412 168.988C412.019 159.692 412.01 150.396 412.006 141.097C444.51 141.091 477.014 141.124 509.518 141.083C519.701 150.367 529.839 159.695 540 169Z" fill="url(#paint1_linear_13_222)"/>
<path d="M540 124.133C529.851 114.775 519.689 105.428 509.527 96.0823C477.018 96.0764 444.509 96.0793 412 96.0793C412.003 86.7301 412 77.378 412 68.0258C444.516 68.0318 477.028 68.0229 509.54 68.0318C509.524 54.7126 509.534 41.3905 509.537 28.0713C477.028 28.0802 444.519 28.0742 412.006 28.0742C412.003 18.7162 412.01 9.35809 412.003 2.65248e-05C454.668 0.00299073 497.332 4.78027e-05 539.997 0.00301201C540.003 41.3786 539.994 82.7572 540 124.133Z" fill="white"/>
<path fill-rule="evenodd" clip-rule="evenodd" d="M236 3.54937e-05L265 29V70L236 99H194.506L264.506 169H223.494L166 111.506V169H137V4.3624e-05L236 3.54937e-05ZM222 70H166V29L222 29L236 43V56L222 70Z" fill="white"/>
<path fill-rule="evenodd" clip-rule="evenodd" d="M128 29V3.54937e-05H29L0 29V140L29 169H128V69H47V98H99V140L43 140L29 126V43L43 29L128 29Z" fill="white"/>
<path fill-rule="evenodd" clip-rule="evenodd" d="M678 29.0001V141L649 170L550 170V4.76926e-05L649 0L678 29.0001ZM635 29L579 29.0001V141L635 141L649 127V43L635 29Z" fill="white"/>
<defs>
<linearGradient id="paint0_linear_13_222" x1="0" y1="116.33" x2="678" y2="116.33" gradientUnits="userSpaceOnUse">
<stop stop-color="#34FBFF"/>
<stop offset="1" stop-color="#1586F4"/>
</linearGradient>
<linearGradient id="paint1_linear_13_222" x1="0" y1="116.33" x2="678" y2="116.33" gradientUnits="userSpaceOnUse">
<stop stop-color="#34FBFF"/>
<stop offset="1" stop-color="#1586F4"/>
</linearGradient>
</defs>
</svg>
