<svg xmlns="http://www.w3.org/2000/svg" viewBox="0 0 124.00006103515625 45.091796875" fill="none"> <path d="M88.83329372541367 42.09177071835917V33.57901652822187H90.6330446112848V40.60801998802923H94.28254640763805V42.09177071835917H88.83329372541367ZM97.15879782338295 42.09177071835917H95.23029687413862L98.1690483206472 33.57901652822187H100.48829946222612L103.42305090676585 42.09177071835917H101.49429995739844L99.36204890786448 35.52426748571089H99.29529887500885L97.15879782338295 42.09177071835917ZM97.03829776407058 38.7457690713944H101.59405000649728V40.1507697629621H97.03829776407058V38.7457690713944ZM104.44755141104422 42.09177071835917V33.57901652822187H107.85605308877267C108.48230339702482 33.57901652822187 109.0045536540862 33.672016573998235 109.42305386007986 33.857516665304864C109.8415540660735 34.04326675673454 110.15605422087638 34.30101688360399 110.36655432448849 34.6307670459132C110.57705442810058 34.957767206868816 110.6825544800297 35.33451739231232 110.6825544800297 35.76126760236678C110.6825544800297 36.0937677660296 110.61605444729713 36.38626791000366 110.483054381832 36.63826803404285C110.34980431624382 36.887768156851486 110.1670542262908 37.09276825775639 109.93430411172683 37.253518336880596C109.70430399851645 37.41151841465119 109.4410538689398 37.52376846990278 109.14455372299686 37.59026850263534V37.67326854348952C109.46880388259888 37.68726855038058 109.7720540318643 37.778518595295566 110.05480417103921 37.94776867860363C110.34030431156773 38.11676876178865 110.57155442539339 38.35351887832149 110.74905451276224 38.65851902844828C110.92630460000807 38.96051917709843 111.01505464369251 39.32076935442032 111.01505464369251 39.73926956041397C111.01505464369251 40.190769782650854 110.90280458844092 40.59401998113817 110.67830447793776 40.948770155752854C110.4565543687882 41.30077032901395 110.1283042072173 41.57927046609694 109.69330399310205 41.78427056700183C109.25805377886371 41.98927066790673 108.72180351491129 42.09177071835917 108.08455320124473 42.09177071835917H104.44755141104422ZM106.24730229691535 40.620269994058916H107.7145530191237C108.21630326609458 40.620269994058916 108.58205344612367 40.524769947052 108.81205355933405 40.33351985291512C109.04205367254441 40.13951975742463 109.1570537291496 39.881769630555176 109.1570537291496 39.560519472429824C109.1570537291496 39.32501935651226 109.10005370109312 39.117019254130696 108.98655364522627 38.937019165531275C108.87305358935942 38.7567690768088 108.71080350949687 38.61551900728287 108.50030340588476 38.51301895683042C108.29230330350322 38.41051890637797 108.04430318143291 38.359268881151756 107.75630303967382 38.359268881151756H106.24730229691535V40.620269994058916ZM106.24730229691535 37.14126828162901H107.58155295365857C107.8283030751136 37.14126828162901 108.04705318278651 37.09826826046359 108.23830327692339 37.01251821825581C108.43230337241387 36.92376817457137 108.58480344747727 36.79901811316705 108.69555350199053 36.63826803404285C108.80930355798046 36.477517954918646 108.86605358591387 36.285017860166484 108.86605358591387 36.06051774966332C108.86605358591387 35.75301759830598 108.7565535320159 35.50501747623567 108.53755342421992 35.31651738345238C108.32155331790062 35.1280172906691 108.01380316642023 35.033767244277456 107.61480297002484 35.033767244277456H106.24730229691535V37.14126828162901ZM116.8040574931483 36.027267733297045C116.77080747678204 35.69201756828062 116.62805740651777 35.43151744005757 116.37605728247858 35.24576734862789C116.12380715831634 35.06026725732127 115.78155698985438 34.9672672115449 115.34930677709272 34.9672672115449C115.05555663250338 34.9672672115449 114.80755651043307 35.00901723209504 114.60530641088178 35.092017272949214C114.40305631133049 35.17251731257285 114.24780623491348 35.284767367824436 114.13980618175384 35.42876743870397C114.03430612982473 35.5727675095835 113.98180610398323 35.73626759006131 113.98180610398323 35.91926768013739C113.97630610127602 36.07176775520079 114.00805611690397 36.20476782066591 114.07730615099015 36.318267876532765C114.14930618642991 36.43201793252268 114.24780623491348 36.5302679808832 114.37255629631781 36.61351802186043C114.49730635772212 36.693768061361006 114.64130642860167 36.7645180961855 114.80480650907947 36.8252681260878C114.96830658955727 36.88351815475956 115.1428066754495 36.933518179370516 115.32855676687917 36.9750181997976L116.09330714330365 37.15801828987368C116.46455732603997 37.241018330727854 116.80555749388664 37.35201838536416 117.11580764659759 37.490518453536495C117.42630779943158 37.62901852170882 117.69505793171544 37.799518605632166 117.92230804357222 38.00176870518346C118.14955815542898 38.20401880473475 118.32530824193647 38.44226892200593 118.4500583033408 38.71676905712005C118.57755836609871 38.991019192111104 118.642808398216 39.30551934691398 118.6455583995696 39.66026952152867C118.642808398216 40.18126977797477 118.50980833275086 40.63277000021166 118.24655820317422 41.015270188485424C117.98605807495117 41.39477037528253 117.6090578893846 41.69002052061019 117.11580764659759 41.900520624222295C116.62530740516415 42.10852072660384 116.03380711401662 42.21227077767156 115.34105677303191 42.21227077767156C114.6538064347544 42.21227077767156 114.05530614016133 42.10702072586552 113.54530588912964 41.89652062225342C113.0383056395746 41.68577051851826 112.64205544453282 41.37402036506899 112.35655530400429 40.961270161905595C112.07380516482938 40.54551995726554 111.9255550918579 40.03151970426498 111.9118050850899 39.41901940278084H113.6533059422893C113.67280595188755 39.70451954330937 113.75455599212646 39.94276966058054 113.898556063006 40.13401975471743C114.04555613536219 40.32251984750071 114.24080623146796 40.46526991776497 114.48480635156939 40.56226996551021C114.73130647290138 40.656520011901854 115.00980660998437 40.70352003503615 115.32030676281836 40.70352003503615C115.6250569128221 40.70352003503615 115.88955704301404 40.65927001325546 116.11405715351721 40.57051996957102C116.34130726537397 40.48176992588658 116.51730735200452 40.35851986522059 116.64205741340882 40.20051978744999C116.76680747481315 40.04251970967938 116.82905750545378 39.86101962034164 116.82905750545378 39.65601951943674C116.82905750545378 39.46476942529986 116.77230747752036 39.30401934617566 116.65855742153045 39.17376928206413C116.54780736701719 39.04351921795261 116.38430728653938 38.932769163439346 116.16805718009704 38.841269118401314C115.95480707513133 38.75001907348633 115.69280694616995 38.666769032509094 115.38255679345899 38.592018995715726L114.45555633717198 38.359268881151756C113.7378059838818 38.18451879513648 113.17130570503973 37.911768660883745 112.75555550039968 37.54026847802439C112.33980529575963 37.16901829528808 112.13355519423946 36.66876804905553 112.13630519559307 36.03976773944977C112.13355519423946 35.52426748571089 112.27055526167346 35.07401726408927 112.54780539814118 34.68901707458496C112.82755553583945 34.30376688495759 113.2113057247285 34.003016736922724 113.69905596480831 33.78701663060342C114.18680620488813 33.57076652416106 114.74105647770051 33.46276647100141 115.36180678324546 33.46276647100141C115.9935570942048 33.46276647100141 116.5450573656636 33.57076652416106 117.01605759749874 33.78701663060342C117.49005783081054 34.003016736922724 117.85855801219326 34.30376688495759 118.1218081417699 34.68901707458496C118.38505827134655 35.07401726408927 118.52080833816528 35.520267483742 118.52905834222608 36.027267733297045H116.8040574931483Z" fill="white"></path> <path d="M50.11202466607863 0C57.91552850710961 0.0026943763262225738 65.7185323478945 -0.0016165757957089333 73.52203618892547 0.002155548561001439C73.5185361872027 1.702305837906868 73.52028618806409 3.4024516747505436 73.52103618843324 5.103152511867401C67.57628326231433 5.104227512396535 61.631530336195425 5.0983025094801375 55.686777410076516 5.105827513184086C53.824526493441674 3.4078516774085257 51.97027558074459 1.7017658376410698 50.11202466607863 0Z" fill="url(#paint0_linear_788_1715)"></path> <path d="M50.11202466607863 8.205079038693828C51.968275579760146 9.91657988112665 53.826776494549165 11.6259307225012 55.685277409338184 13.335256563863446C61.63078033582626 13.336356564404888 67.57653326243738 13.335806564134169 73.52203618892547 13.335806564134169C73.52153618867936 15.045682405767133 73.52203618892547 16.75610824767082 73.52203618892547 18.466534089574505C67.57528326182211 18.465434089033064 61.629030334964874 18.467059089832922 55.683027408230686 18.465434089033064C55.68577740958429 20.90141028806625 55.684027408722905 23.337886487345543 55.6835274084768 25.7737626863295C61.629030334964874 25.772262685591173 67.574783261576 25.773262686083395 73.52103618843324 25.773262686083395C73.52153618867936 27.484763528516215 73.52028618806409 29.196264370949038 73.52153618867936 30.907765213381857C65.7185323478945 30.90726521313575 57.91552850710961 30.907765213381857 50.11277466644779 30.90726521313575C50.11152466583252 23.34006148841612 50.113274666693904 15.772307763425765 50.11202466607863 8.205079038693828Z" fill="white"></path> <path d="M98.76104861204085 30.908265213627967C90.95754477100986 30.905515212274366 83.154540930225 30.909765214366296 75.35103708919402 30.906015212520476C75.35453709091679 29.206014375748172 75.3527870900554 27.505763538852815 75.3522870898093 25.805012701711345C81.29679001580516 25.804012701219126 87.24154294192407 25.81001270417244 93.18629586804298 25.802262700357744C95.04854678467781 27.50026353614561 96.9027976973749 29.20651437599428 98.76104861204085 30.908265213627967Z" fill="url(#paint1_linear_788_1715)"></path> <path d="M98.76104861204085 22.70313617490953C96.90479769835935 20.991635332476708 95.04629678357031 19.282284491102157 93.1877958687813 17.57295864973991C87.24229294229323 17.571883649210776 81.2965400156821 17.57240864946919 75.35103708919402 17.57240864946919C75.35153708944013 15.862532807836224 75.35103708919402 14.15210696593254 75.35103708919402 12.441681124028852C81.29779001629737 12.442781124570292 87.24404294315461 12.441156123770437 93.19029587001185 12.442781124570292C93.1872958685352 10.006829925549415 93.18904586939657 7.5703287262578165 93.18954586964269 5.134377527236939C87.24404294315461 5.135977528024489 81.29829001654348 5.1349025274953535 75.3522870898093 5.1349025274953535C75.35153708944013 3.4234016850625313 75.3527870900554 1.7118933426260179 75.35153708944013 0.000388960191453503C83.154540930225 0.0009313304584183231 90.95754477100986 0.0003922326930642897 98.76054861179475 0.0009346004600278792C98.76154861228696 7.56815372518724 98.75979861142558 15.135907450177593 98.76104861204085 22.70313617490953Z" fill="white"></path> <path fill-rule="evenodd" clip-rule="evenodd" d="M48.46602385588615 5.3027026100897015L43.16327124577184 0H30.3600149437689H25.05626233316237H25.056012333039316V5.303827610643448H25.05626233316237V12.800781300784696H25.056012333039316V18.104633911440448H25.05626233316237V30.908515213751024H30.3600149437689V20.394410038511214L40.87377011883643 30.908265213627967H48.37452381084811L35.57101750872212 18.104633911440448H43.162021245156566V18.10743391281866H48.46602385588615L48.46602385588615 18.105483911858833H43.162021245156566L48.46602385588615 12.801656301215388V12.800781300784696L48.46602385588615 5.303827610643448H48.46602385588615V5.3027026100897015ZM40.60176998495287 12.800781300784696L30.3600149437689 12.800781300784696V5.303827610643448L40.602769985445086 5.303827610643448L43.162021245156566 7.863153870391845V10.240355040494856L40.60176998495287 12.800781300784696Z" fill="white"></path> <path fill-rule="evenodd" clip-rule="evenodd" d="M0 0H0.0000591277791038021H0.0001225473103200851L0.00012231531020589028 5.303827610643448L5.303952610704976 0H23.410086522883752V5.303827610643448L7.863153870391845 5.303827610643448L5.303827610643448 7.863153870391845V25.603512602529218L5.303827610643448 23.044761343063847L7.862553870096514 25.603512602529218L18.106208912215696 25.603512602529218V17.92298382202887H8.595879231053013V12.619156211385418H18.106208912215696H23.410036522859144V25.603512602529218H23.410086522883752V30.90726521313575L5.303827610643448 30.90726521313575V30.90726521313575L0 25.603512602529218V0ZM0 30.90726521313575H5.303827610643448V30.908515213751024H0V30.90726521313575Z" fill="white"></path> <path fill-rule="evenodd" clip-rule="evenodd" d="M100.59004951230942 0H100.58979951218635V31.0915153038271H105.89380212291594V31.091015303580992H118.69680842479582L124.00006103515625 25.787762693220568V31.091015303580992H124.00006103515625V28.531264043623402V25.787012692851405V5.303827610643448L124.00006103515625 0.00028801014176399475L124.00006103515625 0H105.89380212291594H100.59004951230942ZM118.69630842454973 5.303827610643448L105.89380212291594 5.303827610643448V25.787012692851405L116.13580716422297 25.787012692851405L118.69630842454973 23.226686432610787L118.69630842454973 5.303827610643448ZM118.69605842442665 7.8652288714131995L116.13555716409991 5.3047776111110565H118.69605842442665V7.8652288714131995ZM118.69605842442665 0.0008619679242767827L124.00006103515625 5.30470261107414V0.0008624304245044339L118.69605842442665 0.0008619679242767827Z" fill="white"></path> <defs> <linearGradient id="paint0_linear_788_1715" x1="200.448" y1="10.2117" x2="294.088" y2="10.2117" gradientUnits="userSpaceOnUse"> <stop stop-color="#34FBFF"></stop> <stop offset="1" stop-color="#1586F4"></stop> </linearGradient> <linearGradient id="paint1_linear_788_1715" x1="395.044" y1="113.421" x2="301.404" y2="113.421" gradientUnits="userSpaceOnUse"> <stop stop-color="#34FBFF"></stop> <stop offset="1" stop-color="#1586F4"></stop> </linearGradient> </defs> </svg>
