<svg xmlns="http://www.w3.org/2000/svg" viewBox="5581 4695.001953125 78.41455078125 62.232421875"> <path fill="url(#tSvgGradientd4687898aa)" stroke="none" fill-opacity="1" stroke-width="1" stroke-opacity="1" font-size-adjust="none" id="tSvga5b5ffff48" title="Path 2" d="M 5582.000244141 4696.00195312 C 5594.2575 4696.00616938 5606.5138 4695.999423889 5618.7711 4696.00532658 C 5618.7656 4698.66568 5618.7683 4701.32603 5618.7693 4703.98723 C 5609.4318 4703.98891 5600.0943 4703.97964 5590.75675 4703.99144C 5587.83145 4701.33446 5584.91908 4698.66484 5582.000244141 4696.00195312Z"></path> <path fill="white" stroke="none" fill-opacity="1" stroke-width="1" stroke-opacity="1" font-size-adjust="none" id="tSvgf3522f6103" title="Path 3" d="M 5582.000244013 4708.8422 C 5584.91578 4711.5203 5587.83501 4714.195 5590.75424 4716.8698 C 5600.0932 4716.8715 5609.4321 4716.8706 5618.7711 4716.8706 C 5618.7702 4719.5462 5618.7711 4722.2226 5618.7711 4724.8991 C 5609.4303 4724.8974 5600.0904 4724.8999 5590.75055 4724.8974 C 5590.75517 4728.7091 5590.75239 4732.5217 5590.75147 4736.3334 C 5600.0904 4736.3308 5609.4294 4736.3325 5618.7693 4736.3325 C 5618.7702 4739.0106 5618.7683 4741.6888 5618.7702 4744.3669 C 5606.5138 4744.366 5594.2575 4744.3669 5582.00116796 4744.366C 5581.999319874 4732.525 5582.00209209 4720.6832 5582.000244013 4708.8422Z"></path> <path fill="url(#tSvgGradient13e260d0af)" stroke="none" fill-opacity="1" stroke-width="1" stroke-opacity="1" font-size-adjust="none" id="tSvgedfce5d25" title="Path 4" d="M 5658.4147 4744.3669 C 5646.1574 4744.3627 5633.9011 4744.3694 5621.6438 4744.3635 C 5621.6494 4741.7032 5621.6466 4739.0428 5621.6457 4736.3816 C 5630.9832 4736.3799 5640.3207 4736.3892 5649.6582 4736.3774C 5652.5835 4739.0344 5655.4958 4741.704 5658.4147 4744.3669Z"></path> <path fill="white" stroke="none" fill-opacity="1" stroke-width="1" stroke-opacity="1" font-size-adjust="none" id="tSvg6ab97247d7" title="Path 5" d="M 5658.4147 4731.5267 C 5655.4991 4728.8485 5652.5799 4726.1738 5649.6607 4723.4991 C 5640.3217 4723.4974 5630.9828 4723.4982 5621.6438 4723.4982 C 5621.6448 4720.8226 5621.6438 4718.1462 5621.6438 4715.4698 C 5630.9846 4715.4715 5640.3245 4715.4689 5649.6644 4715.4715 C 5649.6598 4711.6598 5649.6625 4707.8472 5649.6635 4704.03548 C 5640.3245 4704.03802 5630.9855 4704.03632 5621.6457 4704.03632 C 5621.6447 4701.3582 5621.6466 4698.68008 5621.6448 4696.00195738 C 5633.9011 4696.00280586 5646.1574 4696.00196381 5658.4138 4696.00281229C 5658.4156 4707.8438 5658.4128 4719.6857 5658.4147 4731.5267Z"></path> <path fill="white" stroke="none" fill-opacity="1" stroke-width="1" stroke-opacity="1" font-size-adjust="none" id="tSvg17957368fca" title="Path 6" d="M 5622.5213 4756.1103 C 5622.5213 4753.186833333333 5622.5213 4750.263366666667 5622.5213 4747.3399 C 5623.141733333333 4747.3399 5623.762166666666 4747.3399 5624.3826 4747.3399 C 5624.3826 4749.753766666667 5624.3826 4752.1676333333335 5624.3826 4754.5815 C 5625.6407 4754.5815 5626.8988 4754.5815 5628.1569 4754.5815 C 5628.1569 4755.0911 5628.1569 4755.6007 5628.1569 4756.1103C 5626.278366666666 4756.1103 5624.399833333333 4756.1103 5622.5213 4756.1103Z"></path> <path fill="white" stroke="none" fill-opacity="1" stroke-width="1" stroke-opacity="1" font-size-adjust="none" id="tSvgaaeac8c23" title="Path 7" d="M 5631.1316 4756.1103 C 5630.466733333334 4756.1103 5629.801866666667 4756.1103 5629.137 4756.1103 C 5630.150066666667 4753.186833333333 5631.1631333333335 4750.263366666667 5632.1762 4747.3399 C 5632.9757666666665 4747.3399 5633.775333333333 4747.3399 5634.5749 4747.3399 C 5635.586533333333 4750.263366666667 5636.598166666667 4753.186833333333 5637.6098 4756.1103 C 5636.944933333333 4756.1103 5636.280066666666 4756.1103 5635.6152 4756.1103 C 5634.880133333333 4753.8549 5634.145066666667 4751.5995 5633.41 4749.3441 C 5633.387066666666 4749.3441 5633.3641333333335 4749.3441 5633.3412 4749.3441C 5632.604666666667 4751.5995 5631.868133333333 4753.8549 5631.1316 4756.1103Z M 5631.007 4752.6629 C 5632.577466666667 4752.6629 5634.147933333334 4752.6629 5635.7184 4752.6629 C 5635.7184 4753.1454 5635.7184 4753.6279 5635.7184 4754.1104 C 5634.147933333334 4754.1104 5632.577466666667 4754.1104 5631.007 4754.1104C 5631.007 4753.6279 5631.007 4753.1454 5631.007 4752.6629Z"></path> <path fill="white" stroke="none" fill-opacity="1" stroke-width="1" stroke-opacity="1" font-size-adjust="none" id="tSvg139faf228e" title="Path 8" d="M 5638.6695 4756.1103 C 5638.6695 4753.186833333333 5638.6695 4750.263366666667 5638.6695 4747.3399 C 5639.8445 4747.3399 5641.0195 4747.3399 5642.1945 4747.3399 C 5642.8421 4747.3399 5643.3823 4747.4355 5643.8151 4747.6268 C 5644.2478 4747.8181 5644.5731 4748.0836 5644.7909 4748.4233 C 5645.0087 4748.7602 5645.1176 4749.1485 5645.1176 4749.5882 C 5645.1176 4749.9308 5645.0488 4750.232 5644.9113 4750.4918 C 5644.7737 4750.7487 5644.5846 4750.96 5644.3438 4751.1256 C 5644.106 4751.2883 5643.8337 4751.4039 5643.5271 4751.4724 C 5643.5271 4751.5009666666665 5643.5271 4751.529533333333 5643.5271 4751.5581 C 5643.8624 4751.5724 5644.1762 4751.6666 5644.4685 4751.8407 C 5644.7637 4752.0149 5645.003 4752.259 5645.1864 4752.573 C 5645.3698 4752.8842 5645.4615 4753.2554 5645.4615 4753.6865 C 5645.4615 4754.1518 5645.3454 4754.5672 5645.1133 4754.9326 C 5644.884 4755.2952 5644.5444 4755.5822 5644.0945 4755.7934 C 5643.6446 4756.0047 5643.09 4756.1103 5642.4309 4756.1103C 5641.1771 4756.1103 5639.9233 4756.1103 5638.6695 4756.1103Z M 5640.5308 4754.5943 C 5641.036633333333 4754.5943 5641.542466666667 4754.5943 5642.0483 4754.5943 C 5642.567 4754.5943 5642.9453 4754.4958 5643.1832 4754.2988 C 5643.421 4754.099 5643.54 4753.8335 5643.54 4753.5023 C 5643.54 4753.2596 5643.4812 4753.0455 5643.3637 4752.8599 C 5643.2462 4752.6744 5643.0786 4752.5288 5642.8608 4752.4231 C 5642.6458 4752.3175 5642.3893 4752.2647 5642.0913 4752.2647 C 5641.571133333333 4752.2647 5641.050966666667 4752.2647 5640.5308 4752.2647C 5640.5308 4753.041233333333 5640.5308 4753.817766666667 5640.5308 4754.5943Z M 5640.5308 4751.0099 C 5640.990766666667 4751.0099 5641.450733333333 4751.0099 5641.9107 4751.0099 C 5642.1658 4751.0099 5642.3922 4750.9657 5642.5899 4750.8772 C 5642.7905 4750.7858 5642.9482 4750.6573 5643.0628 4750.4918 C 5643.1803 4750.3262 5643.2391 4750.1278 5643.2391 4749.8965 C 5643.2391 4749.5796 5643.1258 4749.3241 5642.8994 4749.1299 C 5642.6759 4748.9358 5642.3578 4748.8387 5641.9451 4748.8387 C 5641.473666666667 4748.8387 5641.002233333334 4748.8387 5640.5308 4748.8387C 5640.5308 4749.5624333333335 5640.5308 4750.286166666667 5640.5308 4751.0099Z"></path> <path fill="white" stroke="none" fill-opacity="1" stroke-width="1" stroke-opacity="1" font-size-adjust="none" id="tSvge988babfc3" title="Path 9" d="M 5651.4486 4749.8622 C 5651.4142 4749.5168 5651.2666 4749.2484 5651.0058 4749.0571 C 5650.745 4748.8659 5650.3911 4748.7702 5649.944 4748.7702 C 5649.6402 4748.7702 5649.3837 4748.813 5649.1745 4748.8987 C 5648.9653 4748.9815 5648.8048 4749.0971 5648.6931 4749.2456 C 5648.5842 4749.394 5648.5297 4749.5625 5648.5297 4749.7509 C 5648.524 4749.9079 5648.5569 4750.045 5648.6286 4750.162 C 5648.7031 4750.2791 5648.8048 4750.3804 5648.9338 4750.4661 C 5649.0628 4750.5489 5649.2118 4750.6217 5649.3809 4750.6845 C 5649.55 4750.7444 5649.7305 4750.7958 5649.9225 4750.8386 C 5650.186166666666 4750.901433333333 5650.449833333333 4750.964266666667 5650.7135 4751.0271 C 5651.0975 4751.1127 5651.45 4751.2269 5651.771 4751.3697 C 5652.0919 4751.5124 5652.3699 4751.688 5652.6049 4751.8964 C 5652.8399 4752.1048 5653.0219 4752.3503 5653.1509 4752.633 C 5653.2827 4752.9156 5653.3501 4753.2397 5653.3529 4753.6051 C 5653.3501 4754.1418 5653.2125 4754.6072 5652.9402 4755.0012 C 5652.6709 4755.3923 5652.2811 4755.6964 5651.771 4755.9133 C 5651.2637 4756.1275 5650.6519 4756.2345 5649.9354 4756.2345 C 5649.2247 4756.2345 5648.6057 4756.126 5648.0784 4755.9091 C 5647.5539 4755.6921 5647.1441 4755.3709 5646.8489 4754.9455 C 5646.5566 4754.5173 5646.4033 4753.9877 5646.389 4753.3567 C 5646.989366666667 4753.3567 5647.589733333333 4753.3567 5648.1901 4753.3567 C 5648.2102 4753.6508 5648.2947 4753.8963 5648.4437 4754.0933 C 5648.5956 4754.2874 5648.7977 4754.4345 5649.0499 4754.5344 C 5649.3049 4754.6315 5649.5929 4754.68 5649.9139 4754.68 C 5650.2292 4754.68 5650.5029 4754.6343 5650.735 4754.5429 C 5650.97 4754.4516 5651.152 4754.3245 5651.2809 4754.1618 C 5651.4099 4753.9991 5651.4744 4753.8121 5651.4744 4753.6008 C 5651.4744 4753.4038 5651.4156 4753.2382 5651.2981 4753.104 C 5651.1835 4752.9699 5651.0144 4752.8557 5650.7909 4752.7615 C 5650.5702 4752.6672 5650.2994 4752.5816 5649.9784 4752.5045 C 5649.658866666667 4752.424566666667 5649.339333333333 4752.344633333333 5649.0198 4752.2647 C 5648.2775 4752.0848 5647.6915 4751.8036 5647.2616 4751.421 C 5646.8317 4751.0385 5646.6182 4750.5232 5646.6211 4749.8751 C 5646.6182 4749.3441 5646.7601 4748.8801 5647.0467 4748.4833 C 5647.3361 4748.0865 5647.733 4747.7767 5648.2374 4747.554 C 5648.7418 4747.3313 5649.315 4747.22 5649.9569 4747.22 C 5650.6103 4747.22 5651.1806 4747.3313 5651.6678 4747.554 C 5652.1579 4747.7767 5652.539 4748.0865 5652.8113 4748.4833 C 5653.0835 4748.8801 5653.224 4749.3398 5653.2325 4749.8622C 5652.637866666667 4749.8622 5652.043233333334 4749.8622 5651.4486 4749.8622Z"></path> <defs> <linearGradient id="tSvgGradientd4687898aa" x1="5582.00024384" x2="5658.4147" y1="4726.1182" y2="4726.1182" font-size-adjust="none" gradientUnits="userSpaceOnUse" gradientTransform=""> <stop offset="0" stop-color="hsl(181.188,100%,60.199999999999996%)" stop-opacity="1"></stop> <stop offset="1" stop-color="hsl(209.592,91.02%,51.959999999999994%)" stop-opacity="1"></stop> </linearGradient> <linearGradient id="tSvgGradient13e260d0af" x1="5582.00024384" x2="5658.4147" y1="4726.1182" y2="4726.1182" font-size-adjust="none" gradientUnits="userSpaceOnUse" gradientTransform=""> <stop offset="0" stop-color="hsl(181.188,100%,60.199999999999996%)" stop-opacity="1"></stop> <stop offset="1" stop-color="hsl(209.592,91.02%,51.959999999999994%)" stop-opacity="1"></stop> </linearGradient> </defs> </svg>
