<svg xmlns="http://www.w3.org/2000/svg" viewBox="0 0 1200 630" width="1200" height="630" role="img" aria-label="How Much Does a Crypto Market Maker Cost?">
  <defs>
    <linearGradient id="brand" x1="0" y1="0" x2="1" y2="1">
      <stop offset="0" stop-color="#34fbff"/>
      <stop offset="1" stop-color="#1586f4"/>
    </linearGradient>
    <linearGradient id="bg" x1="0" y1="0" x2="1" y2="1">
      <stop offset="0" stop-color="#141414"/>
      <stop offset="1" stop-color="#0b0b0b"/>
    </linearGradient>
    <linearGradient id="fade" x1="0" y1="1" x2="0" y2="0">
      <stop offset="0" stop-color="#34fbff" stop-opacity="0.08"/>
      <stop offset="1" stop-color="#1586f4" stop-opacity="0.7"/>
    </linearGradient>
    <radialGradient id="glow" cx="0.5" cy="0.5" r="0.5">
      <stop offset="0" stop-color="#1586f4" stop-opacity="0.35"/>
      <stop offset="1" stop-color="#1586f4" stop-opacity="0"/>
    </radialGradient>
  </defs>

  <rect width="1200" height="630" fill="url(#bg)"/>
  <ellipse cx="900" cy="290" rx="360" ry="300" fill="url(#glow)"/>
  <rect x="2" y="2" width="1196" height="626" rx="24" fill="none" stroke="url(#brand)" stroke-opacity="0.18" stroke-width="2"/>

  <g stroke="#ffffff" stroke-opacity="0.035">
    <line x1="90" y1="470" x2="1110" y2="470"/>
    <line x1="90" y1="110" x2="90" y2="470"/>
  </g>

  <rect x="90" y="360" width="124" height="40" rx="20" fill="#111111" stroke="url(#brand)" stroke-width="1.5"/>
  <text x="152" y="386" text-anchor="middle" font-family="Montserrat, Arial, sans-serif" font-size="16" font-weight="700" letter-spacing="1.5" fill="#34fbff">PRICING</text>
  <text x="90" y="138" font-family="Montserrat, Arial, sans-serif" font-size="50" font-weight="800" fill="#ffffff">How Much Does a</text>
  <text x="90" y="200" font-family="Montserrat, Arial, sans-serif" font-size="50" font-weight="800" fill="#ffffff">Crypto Market Maker</text>
  <text x="90" y="262" font-family="Montserrat, Arial, sans-serif" font-size="50" font-weight="800" fill="#ffffff">Cost?</text>

  <g transform="translate(700,110)">
    <ellipse cx="120" cy="320" rx="46" ry="16" fill="url(#fade)" stroke="url(#brand)" stroke-opacity="0.5" stroke-width="1.5"/><ellipse cx="120" cy="294" rx="46" ry="16" fill="url(#fade)" stroke="url(#brand)" stroke-opacity="0.5" stroke-width="1.5"/><ellipse cx="120" cy="268" rx="46" ry="16" fill="url(#fade)" stroke="url(#brand)" stroke-opacity="0.5" stroke-width="1.5"/><ellipse cx="120" cy="242" rx="46" ry="16" fill="url(#fade)" stroke="url(#brand)" stroke-opacity="0.5" stroke-width="1.5"/><ellipse cx="120" cy="216" rx="46" ry="16" fill="url(#fade)" stroke="url(#brand)" stroke-opacity="0.5" stroke-width="1.5"/><text x="120" y="184" text-anchor="middle" font-family="Montserrat, Arial, sans-serif" font-size="30" font-weight="800" fill="#34fbff">$</text><ellipse cx="200" cy="320" rx="46" ry="16" fill="url(#fade)" stroke="url(#brand)" stroke-opacity="0.5" stroke-width="1.5"/><ellipse cx="200" cy="294" rx="46" ry="16" fill="url(#fade)" stroke="url(#brand)" stroke-opacity="0.5" stroke-width="1.5"/><ellipse cx="200" cy="268" rx="46" ry="16" fill="url(#fade)" stroke="url(#brand)" stroke-opacity="0.5" stroke-width="1.5"/><ellipse cx="200" cy="242" rx="46" ry="16" fill="url(#fade)" stroke="url(#brand)" stroke-opacity="0.5" stroke-width="1.5"/><ellipse cx="200" cy="216" rx="46" ry="16" fill="url(#fade)" stroke="url(#brand)" stroke-opacity="0.5" stroke-width="1.5"/><ellipse cx="200" cy="190" rx="46" ry="16" fill="url(#fade)" stroke="url(#brand)" stroke-opacity="0.5" stroke-width="1.5"/><ellipse cx="200" cy="164" rx="46" ry="16" fill="url(#fade)" stroke="url(#brand)" stroke-opacity="0.5" stroke-width="1.5"/><ellipse cx="200" cy="138" rx="46" ry="16" fill="url(#fade)" stroke="url(#brand)" stroke-opacity="0.5" stroke-width="1.5"/><text x="200" y="106" text-anchor="middle" font-family="Montserrat, Arial, sans-serif" font-size="30" font-weight="800" fill="#34fbff">$</text><ellipse cx="280" cy="320" rx="46" ry="16" fill="url(#fade)" stroke="url(#brand)" stroke-opacity="0.5" stroke-width="1.5"/><ellipse cx="280" cy="294" rx="46" ry="16" fill="url(#fade)" stroke="url(#brand)" stroke-opacity="0.5" stroke-width="1.5"/><ellipse cx="280" cy="268" rx="46" ry="16" fill="url(#fade)" stroke="url(#brand)" stroke-opacity="0.5" stroke-width="1.5"/><ellipse cx="280" cy="242" rx="46" ry="16" fill="url(#fade)" stroke="url(#brand)" stroke-opacity="0.5" stroke-width="1.5"/><ellipse cx="280" cy="216" rx="46" ry="16" fill="url(#fade)" stroke="url(#brand)" stroke-opacity="0.5" stroke-width="1.5"/><ellipse cx="280" cy="190" rx="46" ry="16" fill="url(#fade)" stroke="url(#brand)" stroke-opacity="0.5" stroke-width="1.5"/><text x="280" y="158" text-anchor="middle" font-family="Montserrat, Arial, sans-serif" font-size="30" font-weight="800" fill="#34fbff">$</text>
  </g>

  <text x="90" y="585" font-family="Montserrat, Arial, sans-serif" font-size="26" font-weight="700" fill="#ffffff">GREED <tspan fill="#34fbff">LABS</tspan></text>
  <text x="1110" y="585" text-anchor="end" font-family="Montserrat, Arial, sans-serif" font-size="17" font-weight="500" fill="#ffffff" fill-opacity="0.5">greedlabs.org</text>
</svg>