<svg xmlns="http://www.w3.org/2000/svg" viewBox="0 0 1200 630" width="1200" height="630" role="img" aria-label="Loan vs. Retainer">
  <defs>
    <linearGradient id="brand" x1="0" y1="0" x2="1" y2="1">
      <stop offset="0" stop-color="#34fbff"/>
      <stop offset="1" stop-color="#1586f4"/>
    </linearGradient>
    <linearGradient id="bg" x1="0" y1="0" x2="1" y2="1">
      <stop offset="0" stop-color="#141414"/>
      <stop offset="1" stop-color="#0b0b0b"/>
    </linearGradient>
    <linearGradient id="fade" x1="0" y1="1" x2="0" y2="0">
      <stop offset="0" stop-color="#34fbff" stop-opacity="0.08"/>
      <stop offset="1" stop-color="#1586f4" stop-opacity="0.7"/>
    </linearGradient>
    <radialGradient id="glow" cx="0.5" cy="0.5" r="0.5">
      <stop offset="0" stop-color="#1586f4" stop-opacity="0.35"/>
      <stop offset="1" stop-color="#1586f4" stop-opacity="0"/>
    </radialGradient>
  </defs>

  <rect width="1200" height="630" fill="url(#bg)"/>
  <ellipse cx="900" cy="290" rx="360" ry="300" fill="url(#glow)"/>
  <rect x="2" y="2" width="1196" height="626" rx="24" fill="none" stroke="url(#brand)" stroke-opacity="0.18" stroke-width="2"/>

  <g stroke="#ffffff" stroke-opacity="0.035">
    <line x1="90" y1="470" x2="1110" y2="470"/>
    <line x1="90" y1="110" x2="90" y2="470"/>
  </g>

  <rect x="90" y="360" width="124" height="40" rx="20" fill="#111111" stroke="url(#brand)" stroke-width="1.5"/>
  <text x="152" y="386" text-anchor="middle" font-family="Montserrat, Arial, sans-serif" font-size="16" font-weight="700" letter-spacing="1.5" fill="#34fbff">PRICING</text>
  <text x="90" y="200" font-family="Montserrat, Arial, sans-serif" font-size="50" font-weight="800" fill="#ffffff">Loan vs. Retainer</text>

  <g transform="translate(700,110)">
    <ellipse cx="78" cy="278" rx="50" ry="17" fill="url(#fade)" stroke="url(#brand)" stroke-opacity="0.5" stroke-width="1.5"/><ellipse cx="78" cy="254" rx="50" ry="17" fill="url(#fade)" stroke="url(#brand)" stroke-opacity="0.5" stroke-width="1.5"/><ellipse cx="78" cy="230" rx="50" ry="17" fill="url(#fade)" stroke="url(#brand)" stroke-opacity="0.5" stroke-width="1.5"/><ellipse cx="78" cy="206" rx="50" ry="17" fill="url(#fade)" stroke="url(#brand)" stroke-opacity="0.5" stroke-width="1.5"/><ellipse cx="78" cy="182" rx="50" ry="17" fill="url(#fade)" stroke="url(#brand)" stroke-opacity="0.5" stroke-width="1.5"/><ellipse cx="78" cy="158" rx="50" ry="17" fill="url(#fade)" stroke="url(#brand)" stroke-opacity="0.5" stroke-width="1.5"/><text x="78" y="118" text-anchor="middle" font-family="Montserrat, Arial, sans-serif" font-size="30" font-weight="800" fill="#34fbff">$</text><circle cx="200" cy="180" r="32" fill="#0b0b0b" stroke="url(#brand)" stroke-width="2.5"/><text x="200" y="190" text-anchor="middle" font-family="Montserrat, Arial, sans-serif" font-size="22" font-weight="800" fill="#34fbff">VS</text><rect x="268" y="78" width="128" height="150" rx="12" fill="#ffffff" fill-opacity="0.04" stroke="url(#brand)" stroke-opacity="0.4" stroke-width="1.5"/><rect x="268" y="78" width="128" height="30" rx="12" fill="url(#brand)" opacity="0.55"/><rect x="284" y="124" width="18" height="18" rx="4" fill="#ffffff" fill-opacity="0.14"/><rect x="310" y="124" width="18" height="18" rx="4" fill="#ffffff" fill-opacity="0.14"/><rect x="336" y="124" width="18" height="18" rx="4" fill="#ffffff" fill-opacity="0.14"/><rect x="362" y="124" width="18" height="18" rx="4" fill="#ffffff" fill-opacity="0.14"/><rect x="284" y="156" width="18" height="18" rx="4" fill="#ffffff" fill-opacity="0.14"/><rect x="310" y="156" width="18" height="18" rx="4" fill="#ffffff" fill-opacity="0.14"/><rect x="336" y="156" width="18" height="18" rx="4" fill="url(#brand)" fill-opacity="1"/><rect x="362" y="156" width="18" height="18" rx="4" fill="#ffffff" fill-opacity="0.14"/><rect x="284" y="188" width="18" height="18" rx="4" fill="#ffffff" fill-opacity="0.14"/><rect x="310" y="188" width="18" height="18" rx="4" fill="#ffffff" fill-opacity="0.14"/><rect x="336" y="188" width="18" height="18" rx="4" fill="#ffffff" fill-opacity="0.14"/><rect x="362" y="188" width="18" height="18" rx="4" fill="#ffffff" fill-opacity="0.14"/>
  </g>

  <text x="90" y="585" font-family="Montserrat, Arial, sans-serif" font-size="26" font-weight="700" fill="#ffffff">GREED <tspan fill="#34fbff">LABS</tspan></text>
  <text x="1110" y="585" text-anchor="end" font-family="Montserrat, Arial, sans-serif" font-size="17" font-weight="500" fill="#ffffff" fill-opacity="0.5">greedlabs.org</text>
</svg>