<svg xmlns="http://www.w3.org/2000/svg" viewBox="0 0 1200 630" width="1200" height="630" role="img" aria-label="Crypto Market Making Glossary">
  <defs>
    <linearGradient id="brand" x1="0" y1="0" x2="1" y2="1">
      <stop offset="0" stop-color="#34fbff"/>
      <stop offset="1" stop-color="#1586f4"/>
    </linearGradient>
    <linearGradient id="bg" x1="0" y1="0" x2="1" y2="1">
      <stop offset="0" stop-color="#141414"/>
      <stop offset="1" stop-color="#0b0b0b"/>
    </linearGradient>
    <linearGradient id="fade" x1="0" y1="1" x2="0" y2="0">
      <stop offset="0" stop-color="#34fbff" stop-opacity="0.08"/>
      <stop offset="1" stop-color="#1586f4" stop-opacity="0.7"/>
    </linearGradient>
    <radialGradient id="glow" cx="0.5" cy="0.5" r="0.5">
      <stop offset="0" stop-color="#1586f4" stop-opacity="0.35"/>
      <stop offset="1" stop-color="#1586f4" stop-opacity="0"/>
    </radialGradient>
  </defs>

  <rect width="1200" height="630" fill="url(#bg)"/>
  <ellipse cx="900" cy="290" rx="360" ry="300" fill="url(#glow)"/>
  <rect x="2" y="2" width="1196" height="626" rx="24" fill="none" stroke="url(#brand)" stroke-opacity="0.18" stroke-width="2"/>

  <g stroke="#ffffff" stroke-opacity="0.035">
    <line x1="90" y1="470" x2="1110" y2="470"/>
    <line x1="90" y1="110" x2="90" y2="470"/>
  </g>

  <rect x="90" y="360" width="136" height="40" rx="20" fill="#111111" stroke="url(#brand)" stroke-width="1.5"/>
  <text x="158" y="386" text-anchor="middle" font-family="Montserrat, Arial, sans-serif" font-size="16" font-weight="700" letter-spacing="1.5" fill="#34fbff">GLOSSARY</text>
  <text x="90" y="169" font-family="Montserrat, Arial, sans-serif" font-size="50" font-weight="800" fill="#ffffff">Crypto Market Making</text>
  <text x="90" y="231" font-family="Montserrat, Arial, sans-serif" font-size="50" font-weight="800" fill="#ffffff">Glossary</text>

  <g transform="translate(700,110)">
    <rect x="14" y="26" width="112" height="82" rx="12" fill="#ffffff" fill-opacity="0.04" stroke="url(#brand)" stroke-opacity="0.22" stroke-width="1.5"/><circle cx="34" cy="48" r="7" fill="url(#brand)"/><rect x="48" y="42" width="62" height="11" rx="5" fill="#ffffff" fill-opacity="0.22"/><rect x="30" y="70" width="80" height="8" rx="4" fill="#ffffff" fill-opacity="0.13"/><rect x="30" y="84" width="60" height="8" rx="4" fill="#ffffff" fill-opacity="0.13"/><rect x="146" y="26" width="112" height="82" rx="12" fill="url(#fade)" fill-opacity="1" stroke="url(#brand)" stroke-opacity="0.6" stroke-width="1.5"/><circle cx="166" cy="48" r="7" fill="url(#brand)"/><rect x="180" y="42" width="62" height="11" rx="5" fill="#ffffff" fill-opacity="0.22"/><rect x="162" y="70" width="80" height="8" rx="4" fill="#ffffff" fill-opacity="0.13"/><rect x="162" y="84" width="60" height="8" rx="4" fill="#ffffff" fill-opacity="0.13"/><rect x="278" y="26" width="112" height="82" rx="12" fill="#ffffff" fill-opacity="0.04" stroke="url(#brand)" stroke-opacity="0.22" stroke-width="1.5"/><circle cx="298" cy="48" r="7" fill="url(#brand)"/><rect x="312" y="42" width="62" height="11" rx="5" fill="#ffffff" fill-opacity="0.22"/><rect x="294" y="70" width="80" height="8" rx="4" fill="#ffffff" fill-opacity="0.13"/><rect x="294" y="84" width="60" height="8" rx="4" fill="#ffffff" fill-opacity="0.13"/><rect x="14" y="126" width="112" height="82" rx="12" fill="#ffffff" fill-opacity="0.04" stroke="url(#brand)" stroke-opacity="0.22" stroke-width="1.5"/><circle cx="34" cy="148" r="7" fill="url(#brand)"/><rect x="48" y="142" width="62" height="11" rx="5" fill="#ffffff" fill-opacity="0.22"/><rect x="30" y="170" width="80" height="8" rx="4" fill="#ffffff" fill-opacity="0.13"/><rect x="30" y="184" width="60" height="8" rx="4" fill="#ffffff" fill-opacity="0.13"/><rect x="146" y="126" width="112" height="82" rx="12" fill="#ffffff" fill-opacity="0.04" stroke="url(#brand)" stroke-opacity="0.22" stroke-width="1.5"/><circle cx="166" cy="148" r="7" fill="url(#brand)"/><rect x="180" y="142" width="62" height="11" rx="5" fill="#ffffff" fill-opacity="0.22"/><rect x="162" y="170" width="80" height="8" rx="4" fill="#ffffff" fill-opacity="0.13"/><rect x="162" y="184" width="60" height="8" rx="4" fill="#ffffff" fill-opacity="0.13"/><rect x="278" y="126" width="112" height="82" rx="12" fill="url(#fade)" fill-opacity="1" stroke="url(#brand)" stroke-opacity="0.6" stroke-width="1.5"/><circle cx="298" cy="148" r="7" fill="url(#brand)"/><rect x="312" y="142" width="62" height="11" rx="5" fill="#ffffff" fill-opacity="0.22"/><rect x="294" y="170" width="80" height="8" rx="4" fill="#ffffff" fill-opacity="0.13"/><rect x="294" y="184" width="60" height="8" rx="4" fill="#ffffff" fill-opacity="0.13"/><rect x="14" y="226" width="112" height="82" rx="12" fill="url(#fade)" fill-opacity="1" stroke="url(#brand)" stroke-opacity="0.6" stroke-width="1.5"/><circle cx="34" cy="248" r="7" fill="url(#brand)"/><rect x="48" y="242" width="62" height="11" rx="5" fill="#ffffff" fill-opacity="0.22"/><rect x="30" y="270" width="80" height="8" rx="4" fill="#ffffff" fill-opacity="0.13"/><rect x="30" y="284" width="60" height="8" rx="4" fill="#ffffff" fill-opacity="0.13"/><rect x="146" y="226" width="112" height="82" rx="12" fill="#ffffff" fill-opacity="0.04" stroke="url(#brand)" stroke-opacity="0.22" stroke-width="1.5"/><circle cx="166" cy="248" r="7" fill="url(#brand)"/><rect x="180" y="242" width="62" height="11" rx="5" fill="#ffffff" fill-opacity="0.22"/><rect x="162" y="270" width="80" height="8" rx="4" fill="#ffffff" fill-opacity="0.13"/><rect x="162" y="284" width="60" height="8" rx="4" fill="#ffffff" fill-opacity="0.13"/><rect x="278" y="226" width="112" height="82" rx="12" fill="#ffffff" fill-opacity="0.04" stroke="url(#brand)" stroke-opacity="0.22" stroke-width="1.5"/><circle cx="298" cy="248" r="7" fill="url(#brand)"/><rect x="312" y="242" width="62" height="11" rx="5" fill="#ffffff" fill-opacity="0.22"/><rect x="294" y="270" width="80" height="8" rx="4" fill="#ffffff" fill-opacity="0.13"/><rect x="294" y="284" width="60" height="8" rx="4" fill="#ffffff" fill-opacity="0.13"/>
  </g>

  <text x="90" y="585" font-family="Montserrat, Arial, sans-serif" font-size="26" font-weight="700" fill="#ffffff">GREED <tspan fill="#34fbff">LABS</tspan></text>
  <text x="1110" y="585" text-anchor="end" font-family="Montserrat, Arial, sans-serif" font-size="17" font-weight="500" fill="#ffffff" fill-opacity="0.5">greedlabs.org</text>
</svg>