<svg xmlns="http://www.w3.org/2000/svg" viewBox="0 0 1200 630" width="1200" height="630" role="img" aria-label="Market Maker Contract Red Flags">
  <defs>
    <linearGradient id="brand" x1="0" y1="0" x2="1" y2="1">
      <stop offset="0" stop-color="#34fbff"/>
      <stop offset="1" stop-color="#1586f4"/>
    </linearGradient>
    <linearGradient id="bg" x1="0" y1="0" x2="1" y2="1">
      <stop offset="0" stop-color="#141414"/>
      <stop offset="1" stop-color="#0b0b0b"/>
    </linearGradient>
    <linearGradient id="fade" x1="0" y1="1" x2="0" y2="0">
      <stop offset="0" stop-color="#34fbff" stop-opacity="0.08"/>
      <stop offset="1" stop-color="#1586f4" stop-opacity="0.7"/>
    </linearGradient>
    <radialGradient id="glow" cx="0.5" cy="0.5" r="0.5">
      <stop offset="0" stop-color="#1586f4" stop-opacity="0.35"/>
      <stop offset="1" stop-color="#1586f4" stop-opacity="0"/>
    </radialGradient>
  </defs>

  <rect width="1200" height="630" fill="url(#bg)"/>
  <ellipse cx="900" cy="290" rx="360" ry="300" fill="url(#glow)"/>
  <rect x="2" y="2" width="1196" height="626" rx="24" fill="none" stroke="url(#brand)" stroke-opacity="0.18" stroke-width="2"/>

  <g stroke="#ffffff" stroke-opacity="0.035">
    <line x1="90" y1="470" x2="1110" y2="470"/>
    <line x1="90" y1="110" x2="90" y2="470"/>
  </g>

  <rect x="90" y="360" width="148" height="40" rx="20" fill="#111111" stroke="url(#brand)" stroke-width="1.5"/>
  <text x="164" y="386" text-anchor="middle" font-family="Montserrat, Arial, sans-serif" font-size="16" font-weight="700" letter-spacing="1.5" fill="#34fbff">CONTRACTS</text>
  <text x="90" y="169" font-family="Montserrat, Arial, sans-serif" font-size="50" font-weight="800" fill="#ffffff">Market Maker</text>
  <text x="90" y="231" font-family="Montserrat, Arial, sans-serif" font-size="50" font-weight="800" fill="#ffffff">Contract Red Flags</text>

  <g transform="translate(700,110)">
    <rect x="55" y="26" width="290" height="308" rx="16" fill="#ffffff" fill-opacity="0.03" stroke="url(#brand)" stroke-opacity="0.3" stroke-width="1.5"/><rect x="88" y="62" width="218" height="12" rx="6" fill="#ffffff" fill-opacity="0.15"/><rect x="88" y="100" width="140" height="12" rx="6" fill="#ffffff" fill-opacity="0.15"/><line x1="258" y1="92" x2="258" y2="124" stroke="#ffffff" stroke-opacity="0.5" stroke-width="2"/><path d="M258 92 L292 99 L258 108 Z" fill="#ff4d5e"/><rect x="88" y="138" width="218" height="12" rx="6" fill="#ffffff" fill-opacity="0.15"/><rect x="88" y="176" width="140" height="12" rx="6" fill="#ffffff" fill-opacity="0.15"/><line x1="258" y1="168" x2="258" y2="200" stroke="#ffffff" stroke-opacity="0.5" stroke-width="2"/><path d="M258 168 L292 175 L258 184 Z" fill="#ff4d5e"/><rect x="88" y="214" width="218" height="12" rx="6" fill="#ffffff" fill-opacity="0.15"/><rect x="88" y="252" width="140" height="12" rx="6" fill="#ffffff" fill-opacity="0.15"/><line x1="258" y1="244" x2="258" y2="276" stroke="#ffffff" stroke-opacity="0.5" stroke-width="2"/><path d="M258 244 L292 251 L258 260 Z" fill="#ff4d5e"/><rect x="88" y="290" width="218" height="12" rx="6" fill="#ffffff" fill-opacity="0.15"/>
  </g>

  <text x="90" y="585" font-family="Montserrat, Arial, sans-serif" font-size="26" font-weight="700" fill="#ffffff">GREED <tspan fill="#34fbff">LABS</tspan></text>
  <text x="1110" y="585" text-anchor="end" font-family="Montserrat, Arial, sans-serif" font-size="17" font-weight="500" fill="#ffffff" fill-opacity="0.5">greedlabs.org</text>
</svg>