<svg xmlns="http://www.w3.org/2000/svg" viewBox="0 0 1200 630" width="1200" height="630" role="img" aria-label="What Is a Liquidity Lock?">
  <defs>
    <linearGradient id="brand" x1="0" y1="0" x2="1" y2="1">
      <stop offset="0" stop-color="#34fbff"/>
      <stop offset="1" stop-color="#1586f4"/>
    </linearGradient>
    <linearGradient id="bg" x1="0" y1="0" x2="1" y2="1">
      <stop offset="0" stop-color="#141414"/>
      <stop offset="1" stop-color="#0b0b0b"/>
    </linearGradient>
    <linearGradient id="fade" x1="0" y1="1" x2="0" y2="0">
      <stop offset="0" stop-color="#34fbff" stop-opacity="0.08"/>
      <stop offset="1" stop-color="#1586f4" stop-opacity="0.7"/>
    </linearGradient>
    <radialGradient id="glow" cx="0.5" cy="0.5" r="0.5">
      <stop offset="0" stop-color="#1586f4" stop-opacity="0.35"/>
      <stop offset="1" stop-color="#1586f4" stop-opacity="0"/>
    </radialGradient>
  </defs>

  <rect width="1200" height="630" fill="url(#bg)"/>
  <ellipse cx="900" cy="290" rx="360" ry="300" fill="url(#glow)"/>
  <rect x="2" y="2" width="1196" height="626" rx="24" fill="none" stroke="url(#brand)" stroke-opacity="0.18" stroke-width="2"/>

  <g stroke="#ffffff" stroke-opacity="0.035">
    <line x1="90" y1="470" x2="1110" y2="470"/>
    <line x1="90" y1="110" x2="90" y2="470"/>
  </g>

  <rect x="90" y="360" width="136" height="40" rx="20" fill="#111111" stroke="url(#brand)" stroke-width="1.5"/>
  <text x="158" y="386" text-anchor="middle" font-family="Montserrat, Arial, sans-serif" font-size="16" font-weight="700" letter-spacing="1.5" fill="#34fbff">SECURITY</text>
  <text x="90" y="169" font-family="Montserrat, Arial, sans-serif" font-size="50" font-weight="800" fill="#ffffff">What Is a Liquidity</text>
  <text x="90" y="231" font-family="Montserrat, Arial, sans-serif" font-size="50" font-weight="800" fill="#ffffff">Lock?</text>

  <g transform="translate(700,110)">
    <ellipse cx="200" cy="300" rx="128" ry="24" fill="url(#fade)" opacity="0.35" stroke="url(#brand)" stroke-opacity="0.4" stroke-width="1.5"/><ellipse cx="200" cy="274" rx="106" ry="24" fill="url(#fade)" opacity="0.51" stroke="url(#brand)" stroke-opacity="0.4" stroke-width="1.5"/><ellipse cx="200" cy="248" rx="84" ry="24" fill="url(#fade)" opacity="0.6699999999999999" stroke="url(#brand)" stroke-opacity="0.4" stroke-width="1.5"/><ellipse cx="200" cy="222" rx="62" ry="24" fill="url(#fade)" opacity="0.83" stroke="url(#brand)" stroke-opacity="0.4" stroke-width="1.5"/><path d="M170 120 v-18 a30 30 0 0 1 60 0 v18" fill="none" stroke="url(#brand)" stroke-width="10"/><rect x="150" y="118" width="100" height="82" rx="14" fill="url(#fade)" stroke="url(#brand)" stroke-width="2"/><circle cx="200" cy="150" r="11" fill="#0b0b0b"/><rect x="195" y="153" width="10" height="26" rx="3" fill="#0b0b0b"/>
  </g>

  <text x="90" y="585" font-family="Montserrat, Arial, sans-serif" font-size="26" font-weight="700" fill="#ffffff">GREED <tspan fill="#34fbff">LABS</tspan></text>
  <text x="1110" y="585" text-anchor="end" font-family="Montserrat, Arial, sans-serif" font-size="17" font-weight="500" fill="#ffffff" fill-opacity="0.5">greedlabs.org</text>
</svg>