<svg xmlns="http://www.w3.org/2000/svg" viewBox="0 0 1200 630" width="1200" height="630" role="img" aria-label="Why Your Token&apos;s Chart Looks Flat">
  <defs>
    <linearGradient id="brand" x1="0" y1="0" x2="1" y2="1">
      <stop offset="0" stop-color="#34fbff"/>
      <stop offset="1" stop-color="#1586f4"/>
    </linearGradient>
    <linearGradient id="bg" x1="0" y1="0" x2="1" y2="1">
      <stop offset="0" stop-color="#141414"/>
      <stop offset="1" stop-color="#0b0b0b"/>
    </linearGradient>
    <linearGradient id="fade" x1="0" y1="1" x2="0" y2="0">
      <stop offset="0" stop-color="#34fbff" stop-opacity="0.08"/>
      <stop offset="1" stop-color="#1586f4" stop-opacity="0.7"/>
    </linearGradient>
    <radialGradient id="glow" cx="0.5" cy="0.5" r="0.5">
      <stop offset="0" stop-color="#1586f4" stop-opacity="0.35"/>
      <stop offset="1" stop-color="#1586f4" stop-opacity="0"/>
    </radialGradient>
  </defs>

  <rect width="1200" height="630" fill="url(#bg)"/>
  <ellipse cx="900" cy="290" rx="360" ry="300" fill="url(#glow)"/>
  <rect x="2" y="2" width="1196" height="626" rx="24" fill="none" stroke="url(#brand)" stroke-opacity="0.18" stroke-width="2"/>

  <g stroke="#ffffff" stroke-opacity="0.035">
    <line x1="90" y1="470" x2="1110" y2="470"/>
    <line x1="90" y1="110" x2="90" y2="470"/>
  </g>

  <rect x="90" y="360" width="136" height="40" rx="20" fill="#111111" stroke="url(#brand)" stroke-width="1.5"/>
  <text x="158" y="386" text-anchor="middle" font-family="Montserrat, Arial, sans-serif" font-size="16" font-weight="700" letter-spacing="1.5" fill="#34fbff">DIAGNOSE</text>
  <text x="90" y="169" font-family="Montserrat, Arial, sans-serif" font-size="50" font-weight="800" fill="#ffffff">Why Your Token&apos;s</text>
  <text x="90" y="231" font-family="Montserrat, Arial, sans-serif" font-size="50" font-weight="800" fill="#ffffff">Chart Looks Flat</text>

  <g transform="translate(700,110)">
    <path d="M40 58 L40 320 L360 320" fill="none" stroke="#ffffff" stroke-opacity="0.12" stroke-width="2"/><path d="M50 300 L110 258 L162 280 L222 188 L282 208 L350 118" fill="none" stroke="url(#brand)" stroke-width="5" stroke-linecap="round" stroke-linejoin="round"/><circle cx="350" cy="118" r="8" fill="#34fbff"/><line x1="50" y1="242" x2="350" y2="242" stroke="#ff4d5e" stroke-width="4" stroke-dasharray="2 7" opacity="0.85"/><circle cx="350" cy="242" r="7" fill="#ff4d5e"/>
  </g>

  <text x="90" y="585" font-family="Montserrat, Arial, sans-serif" font-size="26" font-weight="700" fill="#ffffff">GREED <tspan fill="#34fbff">LABS</tspan></text>
  <text x="1110" y="585" text-anchor="end" font-family="Montserrat, Arial, sans-serif" font-size="17" font-weight="500" fill="#ffffff" fill-opacity="0.5">greedlabs.org</text>
</svg>