<svg xmlns="http://www.w3.org/2000/svg" viewBox="0 0 46 46" fill="none"> <path d="M10.39215 23L5.202625 28.188L0 23L5.18955 17.811925L10.39215 23ZM23.006525 10.3892L31.9085 19.288625L37.098 14.100575L23.006525 0L8.90195 14.100575L14.0915 19.288625L23.006525 10.3892ZM40.8105 17.811925L35.621 23L40.8105 28.188L46 23L40.8105 17.811925ZM23.006525 35.61075L14.104575 26.71125L8.915025 31.8995L23.006525 46L37.098 31.8995L31.9085 26.71125L23.006525 35.61075ZM23.006525 28.188L28.196 23L23.006525 17.811925L17.803925 23L23.006525 28.188Z" fill="url(#paint0_linear_878_3062)"></path> <defs> <linearGradient id="paint0_linear_878_3062" x1="122.523" y1="-207.715" x2="-293.782" y2="-52.1419" gradientUnits="userSpaceOnUse"> <stop stop-color="white"></stop> <stop offset="1" stop-color="#EAEAEA"></stop> </linearGradient> </defs> </svg>
