<svg xmlns="http://www.w3.org/2000/svg" viewBox="0 0 58 58" fill="none"> <g clip-path="url(#clip0_907_176)"> <path d="M55.77975 17.473275C53.061 14.96295 49.3 11.129525 46.237 8.410775L46.05575 8.2839C45.75425 8.041725 45.41425 7.8518 45.04975 7.722025C37.66375 6.344525 3.289775 -0.08079275 2.61915 0.0007696475C2.4312475 0.02708725 2.25163 0.09521775 2.093535 0.20014475L1.9213475 0.3360825C1.709325 0.5514075 1.54829 0.81154 1.4500975 1.0973325L1.404785 1.215145V1.8585825V1.95827C5.274475 12.733575 20.55385 48.032 23.5626 56.31525C23.74385 56.877 24.088225 57.9465 24.73165 58.00075H24.87665C25.221 58.00075 26.68925 56.0615 26.68925 56.0615C26.68925 56.0615 52.93425 24.2339 55.5895 20.844525C55.93325 20.427025 56.2365 19.977925 56.49575 19.503275C56.56175 19.131875 56.53075 18.7497 56.40525 18.39395C56.27975 18.0382 56.06425 17.721 55.77975 17.473275ZM33.4225 21.179825L44.62375 11.890775L51.19425 17.944525L33.4225 21.179825ZM29.0725 20.57265L9.7876 4.76765L40.98975 10.522325L29.0725 20.57265ZM30.8125 24.7142L50.55075 21.533275L27.985 48.72075L30.8125 24.7142ZM7.168525 6.344525L27.4595 23.563275L24.523225 48.739L7.168525 6.344525Z" fill="white"></path> </g> <defs> <clipPath id="clip0_907_176"> <rect width="14.5" height="14.5" fill="white" transform="scale(4)"></rect> </clipPath> </defs> </svg>
