<svg xmlns="http://www.w3.org/2000/svg" viewBox="0 0 56 56" fill="none"> <path fill-rule="evenodd" clip-rule="evenodd" d="M56 28C56 43.464 43.464 56 28 56C12.536025 56 0 43.464 0 28C0 12.536025 12.536025 0 28 0C43.464 0 56 12.536025 56 28ZM35.9 18.5H20.2C19.8 18.5 19.1 18.5 18.5 18.9C17.8 19.1 17.3 19.6 17 20.2C16.7 20.8 16.5 21.4 16.6 22.1C16.6 22.74 16.856 23.188 17.0608 23.5464C17.112 23.636 17.16 23.72 17.2 23.8L26.9 40.8C27.2 41.2 27.6 41.4 28 41.4C28.5 41.4 28.9 41.2 29.1 40.8L39 23.8C39.4 23.2 39.5 22.6 39.5 22C39.5 21.3 39.3 20.7 39 20.2C38.9 20.2 38.9 20.1 38.9 20.1C38.7 19.7 38.3 19.2 37.6 18.9C37 18.6 36.5 18.5 35.9 18.5ZM20.2 20.9H26.8V35.5L19.3 22.5C19.215475 22.330925 19.1488 22.21545 19.1 22.130925C19.03335 22.015475 19 21.957725 19 21.9C19 21.7 19 21.5 19.1 21.4C19.2 21.2 19.3 21.1 19.5 21C19.6 20.9 19.8 20.9 20.2 20.9ZM29.2 35.6V21H35.8C36.1 21 36.3 21 36.5 21.1L36.6 21.2C36.66175 21.2 36.6855 21.2382 36.718 21.290975C36.73825 21.3236 36.76175 21.3618 36.8 21.4C36.9 21.5 36.9 21.7 36.9 21.9C36.9 22.1 36.9 22.3 36.8 22.5L29.2 35.6Z" fill="white"></path> </svg>
