<svg xmlns="http://www.w3.org/2000/svg" viewBox="0 0 46.464454650878906 69.69921875" fill="none"> <path d="M0 46.465204077566824L23.231602803199525 69.69668197631836V46.465204077566824L12.143210433221633 45.83818374867593L0 46.465204077566824Z" fill="black"></path> <path d="M0 46.465204077566824H23.231602803199525L11.91803269439205 34.522839996707056L0 23.23352633169851V46.465204077566824Z" fill="#D3D2D2"></path> <path d="M0 23.23280188590019L23.231602803199525 46.464454650878906L23.859172711661554 34.06269201032577L23.231602803199525 23.23280188590019L13.319560524355982 22.60465741697742L0 23.23280188590019Z" fill="#A8A5A6"></path> <path d="M23.231577822309927 46.463705224190996V23.23280188590019L33.12990559276458 22.60465741697742L46.462456179711126 23.23280188590019L23.231577822309927 46.463705224190996Z" fill="#7C7A7A"></path> <path d="M23.231602803199525 0L0 23.23217736366026H23.231602803199525L23.85857317031122 12.64280324427697L23.231602803199525 0Z" fill="#231F20"></path> <path d="M23.231577822309927 0V23.23217736366026H46.462456179711126L23.231577822309927 0Z" fill="#504D4E"></path> <path d="M23.230403720498856 69.69468350515059V69.69368426956669L0 46.46320560639905L23.230403720498856 69.69468350515059ZM23.230403720498856 0L0 23.23217736366026L23.23217736366026 0H23.230403720498856Z" fill="#EE1E59"></path> <path d="M0 46.46320560639905L23.230403720498856 69.69368426956669V46.46320560639905H0Z" fill="white"></path> <path d="M0 46.465204077566824H23.230403720498856L0 23.23352633169851V46.465204077566824Z" fill="#F1F1F1"></path> <path d="M0 23.23352633169851L23.231602803199525 46.465204077566824V46.46345541529502V23.23352633169851H0Z" fill="#E9E9E9"></path> <path d="M46.46195656191919 23.23352633169851H23.231577822309927V46.46395503308696L46.46195656191919 23.23352633169851Z" fill="#DEDEDE"></path> <path d="M0 23.23217736366026H23.231602803199525V0.0011852258012082502L23.23100326184919 0.0005926116515596452L0 23.23217736366026Z" fill="#D5D5D5"></path> <path d="M23.231577822309927 23.232951771237772H46.46195656191919L23.231577822309927 0.0019530534124029835V23.232951771237772Z" fill="#D5D5D5"></path> </svg>
