<svg xmlns="http://www.w3.org/2000/svg" viewBox="0 0 59.318603515625 45.5" fill="none"> <path d="M9.607993723636916 34.62062999975381C9.964827524701287 34.27144780006729 10.45550204042066 34.06782049304096 10.975885705463826 34.06782049304096H58.16812169281775C59.03048458426339 34.06782049304096 59.46166602998621 35.08645550383239 58.852279535886616 35.68313086860721L49.52978774639738 44.807727821157755C49.17287917398405 45.15691002084428 48.6821298869157 45.360786565700494 48.161721298089546 45.360786565700494H0.9694429403045397C0.10707606105362066 45.360786565700494 -0.32410887399881827 44.341902317079175 0.28549694939108455 43.745476190134255L9.607993723636916 34.62062999975381Z" fill="url(#paint0_linear_878_3058)"></path> <path d="M9.607993723636916 0.5530088969767594C9.979707023146172 0.20374021176326976 10.470356615082556 0 10.975885705463826 0H58.16812169281775C59.03048458426339 0 59.46166602998621 1.018699812627199 58.852279535886616 1.6153677002671185L49.52978774639738 10.740007023248753C49.17287917398405 11.089288918067227 48.6821298869157 11.293015920225512 48.161721298089546 11.293015920225512H0.9694429403045397C0.10707606105362066 11.293015920225512 -0.32410887399881827 10.274331061868105 0.28549694939108455 9.677655697093291L9.607993723636916 0.5530088969767594Z" fill="url(#paint1_linear_878_3058)"></path> <path d="M49.52978774639738 17.47780282156808C49.17287917398405 17.128545850532593 48.6821298869157 16.92479392459132 48.161721298089546 16.92479392459132H0.9694429403045397C0.10707606105362066 16.92479392459132 -0.32410887399881827 17.943503706731715 0.28549694939108455 18.540179071506532L9.607993723636916 27.664900642972032C9.964827524701287 28.014082842658546 10.45550204042066 28.217710149684873 10.975885705463826 28.217710149684873H58.16812169281775C59.03048458426339 28.217710149684873 59.46166602998621 27.19907513889345 58.852279535886616 26.60239977411863L49.52978774639738 17.47780282156808Z" fill="url(#paint2_linear_878_3058)"></path> <defs> <linearGradient id="paint0_linear_878_3058" x1="157.997" y1="85.5375" x2="31.3179" y2="333.44" gradientUnits="userSpaceOnUse"> <stop stop-color="white"></stop> <stop offset="1" stop-color="#EAEAEA"></stop> </linearGradient> <linearGradient id="paint1_linear_878_3058" x1="157.997" y1="-51.15" x2="31.3179" y2="196.753" gradientUnits="userSpaceOnUse"> <stop stop-color="white"></stop> <stop offset="1" stop-color="#EAEAEA"></stop> </linearGradient> <linearGradient id="paint2_linear_878_3058" x1="157.997" y1="16.7563" x2="31.3179" y2="264.659" gradientUnits="userSpaceOnUse"> <stop stop-color="white"></stop> <stop offset="1" stop-color="#EAEAEA"></stop> </linearGradient> </defs> </svg>
