<svg xmlns="http://www.w3.org/2000/svg" viewBox="0 0 119.01277923583984 44.49433517456055" fill="none"> <path d="M8.930948496324712 13.55348468270292C8.766825632212898 13.55348468270292 8.602702768101082 13.389361818591105 8.766825632212898 13.225214004211107L9.915710631263781 11.583935462556596C10.07985844564378 11.41981259844478 10.243981309755593 11.255664784064784 10.572227037979221 11.255664784064784H31.25245642411334C31.416629188761522 11.255664784064784 31.580801953409704 11.41981259844478 31.416629188761522 11.583935462556596L30.43184210355427 13.061091140099293C30.26766933890609 13.225214004211107 30.103496574257907 13.389361818591105 29.77540054764338 13.389361818591105L8.930948496324712 13.55348468270292ZM0.23211384192825413 18.80561593642645C0.06798498975207572 18.80561593642645 -0.09614461093214823 18.64146812204645 0.06798424124403021 18.477345257934637L1.2168869549853247 16.836066716280122C1.3810173041775942 16.671918901900128 1.5451451583430453 16.507796037788314 1.8734033617007657 16.507796037788314H28.29809516849158C28.46226793313976 16.507796037788314 28.62644069778794 16.671918901900128 28.62644069778794 16.836066716280122L28.1339224038434 18.477345257934637C28.1339224038434 18.64146812204645 27.805826377228872 18.80561593642645 27.641653612580694 18.80561593642645H0.23211384192825413ZM14.18307975004824 24.221870054261792C14.018931935668242 24.221870054261792 13.854809071556428 24.057722239881794 14.018931935668242 23.893599375769977L14.839596156763681 22.41644369822728C15.003719020875497 22.25232083411547 15.16784188498731 22.08817301973547 15.496112563479121 22.08817301973547H26.985212056669802C27.149135318636148 22.08817301973547 27.31330808328433 22.25232083411547 27.31330808328433 22.41644369822728L27.14938482131798 23.729476511658163C27.14938482131798 23.893599375769977 26.985212056669802 24.057722239881794 26.82103929202162 24.057722239881794L14.18307975004824 24.221870054261792ZM74.25424363857245 12.40457473338385L64.57054555114811 14.8665174961338C63.749931230589034 15.030640360245616 63.58575846594085 15.194763224357429 62.92931691002996 14.210001089418359C62.10870258947089 13.225214004211107 61.45226103356 12.568697597495666 60.139128419056384 12.076304054892038C56.528325607523726 10.270902649125714 52.91752279599108 10.76329619172934 49.63481601107296 12.896968275987478C45.69591717292578 15.358886088469244 43.72634300251127 19.133861664650077 43.72634300251127 23.893599375769977C43.72634300251127 28.489214222778067 47.00880028474756 32.264189798958895 51.60439018148747 32.92063135486978C55.543538522316474 33.41314964881433 58.8262453072346 32.10001703431072 61.45226103356 29.145655778688955C61.9445298248227 28.489214222778067 62.43704811876725 27.832772666867175 63.093489674678146 27.0121583463081H51.93273571078383C50.78377586092839 27.0121583463081 50.45567983431386 26.191294523067196 50.78377586092839 25.206507437859944C51.60439018148747 23.40120583316635 52.91752279599108 20.446894478080957 53.73813711655015 18.96973880053826C53.90230988119833 18.64146812204645 54.394578672461044 17.98495171533101 55.21519299302011 17.98495171533101H76.22381780898696C76.0596450443388 19.626255207253703 76.0596450443388 21.1034108847964 75.89547227969061 22.74468942645091C75.2390307237797 26.84798558165992 73.76197484730976 30.787133922488938 71.13570961830251 34.06959120472523C67.03263801550716 39.485795422024204 61.61643379820818 42.93267497159051 54.72292420175741 43.91721255411592C48.97837445516207 44.738076377356826 43.72634300251127 43.589116527501396 39.13075310577137 40.142486480616924C34.86325923564599 36.859779695698805 32.40141627396878 32.59253532825526 31.744974718057886 27.34025437292263C30.924110894816977 21.1034108847964 32.89368506523148 15.358886088469244 36.66866064141232 10.435025513237528C40.771981746889516 5.018771395402185 46.18818596418849 1.5720664977131649 52.91752279599108 0.42316403347455234C58.33372701329006 -0.561608081571791 63.58575846594085 0.09490508160878629 68.18159786536259 3.2133450393676757C71.29988238295068 5.182894259513999 73.43362931801339 7.973082750487578 74.91068519448335 11.41981259844478C75.07485795913153 12.076304054892038 74.91068519448335 12.240451869272036 74.25424363857245 12.40457473338385Z" fill="url(#paint0_linear_878_3035)"></path> <path d="M93.29304478144296 44.41172686951516C88.04101332879216 44.24755410486697 83.28125066740408 42.77049822839701 79.17792956192689 39.323618678830705C75.73129951504242 36.36925742320894 73.59755257997972 32.594281847028114 72.94111102406885 28.162864714936394C71.95632393886159 21.59775054831835 73.7617253446279 15.853225751991193 77.70087368545693 10.765242312647661C81.96811805290046 5.184865330700505 87.05622624358492 2.394661869566016 93.94973584003569 1.0816315511619519C99.85820884859737 0.09685768959683594 105.43858583054454 0.589242998611962 110.36252125658079 4.035955381381436C114.95811115332071 7.154389600578645 117.74829964429429 11.421758719363103 118.56891396485335 17.00213570131026C119.55370105006061 24.880332581895555 117.25603085303158 31.117225970558152 112.00374989769895 36.53343018785713C108.22877432151812 40.47257852868614 103.46901166013004 42.77049822839701 98.21698020747924 43.91920857557061C96.4115788017129 44.24755410486697 94.77035016059476 44.24755410486697 93.29304478144296 44.41172686951516ZM107.08006397434451 21.10535700571472C107.08006397434451 20.284717734887465 107.08006397434451 19.79232419228384 106.91589120969634 19.1358077855684C105.93110412448908 13.391307939509426 100.67882316915644 10.108725905932221 95.09844618720929 11.421758719363103C89.68224196991032 12.570643718413988 86.23561192302584 16.01737356637119 84.92247930852223 21.433627684206535C83.93769222331498 25.86519451790736 86.07143915837766 30.46078441464726 90.17476026385486 32.43035858506177C93.29304478144296 33.743241696883544 96.57575156636108 33.579068932235366 99.53011282198284 32.102013055765404C104.28987548337093 29.804093356054533 106.75171844504816 26.029117779873705 107.08006397434451 21.10535700571472Z" fill="url(#paint1_linear_878_3035)"></path> <defs> <linearGradient id="paint0_linear_878_3035" x1="203.43" y1="-199.853" x2="-352.934" y2="158.933" gradientUnits="userSpaceOnUse"> <stop stop-color="white"></stop> <stop offset="1" stop-color="#EAEAEA"></stop> </linearGradient> <linearGradient id="paint1_linear_878_3035" x1="414.36" y1="-195.536" x2="1.72555" y2="-33.1038" gradientUnits="userSpaceOnUse"> <stop stop-color="white"></stop> <stop offset="1" stop-color="#EAEAEA"></stop> </linearGradient> </defs> </svg>
