<svg xmlns="http://www.w3.org/2000/svg" viewBox="0 0 58 58" fill="none"> <path d="M31.54025 26.659H26.10775C26.10775 31.343 26.0865 35.99775 26.0865 40.6875C26.1505 41.32375 26.18525 42.0645 26.18525 42.813C26.18525 44.3795 26.0285 45.90925 25.72875 47.38675L25.754 47.23975C24.95715 48.90475 22.9014 48.692 21.96925 48.4C21.097075 47.932 20.40665 47.22225 19.9754 46.35975L19.9638 46.33275C19.8787 46.151 19.7762 45.99625 19.654375 45.857L19.6563 45.859L15.24505 48.578C15.954775 50.10575 17.051325 51.35125 18.41085 52.2235L18.445675 52.24475C19.92125 53.0705 21.684975 53.55575 23.560875 53.55575C24.496875 53.55575 25.40575 53.434 26.27025 53.20775L26.19675 53.22525C28.1075 52.7455 29.66425 51.504 30.55575 49.8525L30.57325 49.81575C31.2675 48.048 31.66775 46 31.66775 43.85925C31.66775 43.10875 31.6175 42.37 31.52275 41.645L31.5325 41.73C31.5615 36.76575 31.5325 31.79925 31.5325 26.79625L31.54025 26.659ZM53.25025 44.16875C52.82675 41.523 51.10375 39.299 45.99225 37.226C44.21325 36.3925 42.23675 35.81225 41.64875 34.47C41.527 34.1645 41.45725 33.8105 41.45725 33.44125C41.45725 33.2015 41.48625 32.96925 41.5425 32.747L41.5385 32.76625C41.94075 31.70275 42.95225 30.958 44.13575 30.958C44.5205 30.958 44.88625 31.0355 45.21675 31.1765L45.1995 31.169C46.267 31.53625 47.11025 32.31775 47.54925 33.3195L47.55875 33.3445C50.0575 31.7105 50.0575 31.7105 51.79975 30.6255C51.38225 29.91175 50.91225 29.293 50.3805 28.736L50.38425 28.74C48.901 27.16575 46.80275 26.187 44.47425 26.187C44.1435 26.187 43.81675 26.2065 43.4975 26.24525L43.53625 26.24125L41.8325 26.456C40.177 26.831 38.76325 27.69175 37.7075 28.87725L37.70175 28.885C36.667 30.171 36.0405 31.8225 36.0405 33.621C36.0405 36.0945 37.226 38.2915 39.05725 39.67625L39.07675 39.68975C42.376 42.1555 47.199 42.697 47.816 45.01775C48.39625 47.845 45.71375 48.752 43.0645 48.42525C41.21375 48.0035 39.6975 46.82 38.84075 45.23025L38.82325 45.1975L34.4005 47.73675C34.92075 48.77325 35.57425 49.659 36.35575 50.41525L36.3575 50.417C40.562 54.66025 51.07475 54.4435 52.96225 47.99C53.18075 47.286 53.3065 46.47775 53.3065 45.64025C53.3065 45.06025 53.2465 44.4935 53.1305 43.94825L53.14 44.00225L53.25025 44.16875ZM0 0H58V58H0V0Z" fill="white"></path> </svg>
