<svg xmlns:xlink="http://www.w3.org/1999/xlink" xmlns="http://www.w3.org/2000/svg" width="127" height="125" viewBox="0 0 127 125" fill="none"><path d="M31.5012 83.3853C34.7629 87.6961 38.8997 91.2802 43.6445 93.9062C48.4497 96.5684 53.7552 98.2224 59.2317 98.7655C56.402 94.703 52.2912 90.9687 47.162 88.1197C42.3599 85.4097 37.0106 83.7926 31.5012 83.3853ZM54.0552 76.7864C44.1695 71.302 33.47 69.9062 25.8102 72.3749C26.5522 74.7152 27.5235 76.9635 28.724 79.1197C35.3757 78.9739 42.6365 80.6978 49.3985 84.4426C56.1552 88.1926 61.3265 93.3645 64.487 98.9582C67.0455 98.8819 69.5725 98.5728 72.068 98.0312C70.5245 90.4583 63.9357 82.276 54.0552 76.7864ZM101.169 54.5312C99.8951 49.6241 97.6185 45.029 94.4802 41.0312C91.2922 36.9829 87.3207 33.6077 82.799 31.1041C78.2189 28.576 73.187 26.9557 67.9835 26.3332C62.7607 25.7148 57.4667 26.1003 52.391 27.4687C60.854 28.4582 70.241 31.4895 79.4547 36.5989C88.6632 41.703 96.0815 47.9947 101.169 54.526M88.8575 72.4322C84.5315 65.5624 77.1132 58.9895 67.973 53.9166C58.838 48.8489 49.178 45.953 40.7937 45.7603C33.4175 45.5937 27.8787 47.6457 25.6107 51.3801L25.5582 51.4426C25.3586 52.1403 25.18 52.8437 25.0227 53.552C28.1937 52.3541 31.874 51.6874 35.9585 51.6145C45.0515 51.453 55.226 54.2291 64.6182 59.4374C74.0105 64.6457 81.5757 71.7135 85.9332 79.3333C87.8862 82.7708 89.1042 86.1457 89.582 89.3749C90.149 88.8957 90.6985 88.3992 91.2305 87.8853L91.2725 87.8124C93.5405 84.0728 92.6637 78.4687 88.8575 72.4322Z" fill="white"/><path d="M61.022 65.343C47.0255 57.5826 31.559 56.3638 24.125 61.7805C24.1425 63.4819 24.2773 65.1711 24.5293 66.8482C26.7193 66.2121 28.9725 65.8139 31.2492 65.6607C39.5652 65.0617 48.7265 67.2753 57.0373 71.8899C65.3533 76.5044 71.9052 83.0096 75.4805 90.1919C76.471 92.1676 77.22 94.2232 77.7275 96.3586C79.383 95.7406 80.9877 95.0166 82.5417 94.1867C83.786 85.3326 75.0237 73.1086 61.022 65.343ZM96.0605 60.9367C91.6767 54.0774 84.1955 47.4836 74.9923 42.3794C65.789 37.2753 56.0922 34.3378 47.687 34.0982C41.2715 33.9211 36.305 35.4055 33.7272 38.2128C44.4215 36.4836 58.5282 39.3899 72.1992 46.9732C85.8702 54.5565 95.5093 64.8169 99.2263 74.5461C100.502 71.0201 99.3995 66.1659 96.0605 60.9367Z" fill="white"/></svg>