<svg width="32" height="32" viewBox="0 0 55 55" fill="none" xmlns="http://www.w3.org/2000/svg"> <path class="linkedin-icon" d="M27.5 0C12.3105 0 0 12.3105 0 27.5C0 42.6895 12.3105 55 27.5 55C42.6895 55 55 42.6895 55 27.5C55 12.3105 42.6895 0 27.5 0ZM19.8086 39.0049H14.4482V21.8496H19.8086V39.0049ZM16.9834 19.7012H16.9404C14.9961 19.7012 13.7393 18.3906 13.7393 16.7256C13.7393 15.0283 15.0391 13.75 17.0156 13.75C18.9922 13.75 20.2061 15.0283 20.249 16.7256C20.2598 18.3799 19.0029 19.7012 16.9834 19.7012ZM41.25 39.0049H35.1699V30.1318C35.1699 27.8115 34.2246 26.2217 32.1299 26.2217C30.5293 26.2217 29.6377 27.2959 29.2295 28.3271C29.0791 28.6924 29.1006 29.208 29.1006 29.7344V39.0049H23.0742C23.0742 39.0049 23.1494 23.2783 23.0742 21.8496H29.1006V24.5459C29.4551 23.3643 31.3779 21.6885 34.4502 21.6885C38.2637 21.6885 41.25 24.1592 41.25 29.4658V39.0049Z" fill="#E6E6E6"></path> </svg>
