<svg xmlns="http://www.w3.org/2000/svg" viewBox="0 0 49 49" fill="none"> <path d="M24.499775 48.909C23.8258 48.909 23.19675 48.72925 22.612625 48.41475L16.6366 44.86525C15.73795 44.371 16.187275 44.19125 16.45685 44.10125C17.670025 43.697 17.8947 43.607 19.1528 42.888C19.2876 42.79825 19.46735 42.84325 19.602125 42.933L24.18525 45.674C24.364975 45.76375 24.58965 45.76375 24.72445 45.674L42.6525 35.2945C42.83225 35.20475 42.92225 35.025 42.92225 34.80025V14.08635C42.92225 13.8617 42.83225 13.68195 42.6525 13.5921L24.72445 3.2576C24.544725 3.16775 24.32005 3.16775 24.18525 3.2576L6.257175 13.5921C6.07745 13.68195 5.987575 13.906625 5.987575 14.08635V34.80025C5.987575 34.98 6.07745 35.20475 6.257175 35.2945L11.154825 38.12525C13.80585 39.47325 15.46835 37.9005 15.46835 36.328V15.88365C15.46835 15.61405 15.693 15.344475 16.007525 15.344475H18.2991C18.5687 15.344475 18.838275 15.569125 18.838275 15.88365V36.328C18.838275 39.87775 16.906175 41.9445 13.53625 41.9445C12.5028 41.9445 11.694 41.9445 9.40245 40.82125L4.684525 38.12525C3.516275 37.45125 2.797375 36.19325 2.797375 34.84525V14.131275C2.797375 12.7833 3.516275 11.5252 4.684525 10.8512L22.612625 0.4717925C23.735925 -0.15726375 25.26375 -0.15726375 26.387 0.4717925L44.315 10.8512C45.48325 11.5252 46.20225 12.7833 46.20225 14.131275V34.84525C46.20225 36.19325 45.48325 37.45125 44.315 38.12525L26.387 48.50475C25.80275 48.77425 25.12875 48.909 24.499775 48.909ZM30.0265 34.6655C22.1633 34.6655 20.545725 31.07075 20.545725 28.0155C20.545725 27.74575 20.770375 27.47625 21.0849 27.47625H23.4214C23.691 27.47625 23.91565 27.656 23.91565 27.9255C24.275125 30.307 25.3085 31.47525 30.0715 31.47525C33.84575 31.47525 35.46325 30.6215 35.46325 28.5995C35.46325 27.43125 35.014 26.5775 29.12775 25.9935C24.2302 25.49925 21.174775 24.42085 21.174775 20.5117C21.174775 16.872175 24.2302 14.7154 29.3525 14.7154C35.10375 14.7154 37.9345 16.69245 38.294 21.005975C38.294 21.140775 38.24925 21.27555 38.15925 21.41035C38.0695 21.500225 37.9345 21.5901 37.79975 21.5901H35.46325C35.23875 21.5901 35.014 21.41035 34.969 21.1857C34.43 18.7144 33.037 17.905625 29.3525 17.905625C25.21875 17.905625 24.72445 19.34345 24.72445 20.42185C24.72445 21.7249 25.3085 22.129275 30.88025 22.8482C36.407 23.567125 39.013 24.600575 39.013 28.46475C38.968 32.41875 35.733 34.6655 30.0265 34.6655Z" fill="#FEFEFE"></path> </svg>
