<svg xmlns:xlink="http://www.w3.org/1999/xlink" xmlns="http://www.w3.org/2000/svg" width="200" height="200" viewBox="0 0 200 200" fill="none"><path d="M200 100C200 155.228 155.228 200 100 200C44.772 200 0 155.228 0 100C0 44.772 44.772 0 100 0C155.228 0 200 44.772 200 100Z" fill="white"/><path d="M173.596 84.6842C168.537 77.6002 163.168 73.8872 159.807 72.0832C158.609 69.8842 157.3 67.7474 155.885 65.6812C151.748 59.6332 147.437 54.3892 143.074 50.0942C138.994 46.0772 134.737 42.7632 130.421 40.2432C122.912 35.8572 115.123 33.7172 106.61 33.7012H106.513C98.7191 33.7012 91.6011 35.4742 85.6631 37.2112C83.9544 37.7158 82.2504 38.2358 80.5511 38.7712C76.2641 40.1052 72.2151 41.3672 68.7981 41.9292C66.4701 42.3132 64.6451 43.1912 63.3761 44.5392C62.1761 45.8122 61.4631 47.5142 61.2541 49.5982C60.8641 53.4952 62.2461 58.7162 65.2511 64.6972C71.2621 76.6612 82.7761 89.8322 94.5841 98.2542C95.7959 99.1215 96.9457 100.073 98.0251 101.1L97.9771 101.11C88.7941 102.422 84.0101 112.29 82.0731 117.622C81.5681 119.013 82.9431 120.259 84.3461 119.785C89.9101 117.91 101.124 114.908 107.689 118.485C108.915 124.351 108.398 130.102 106.185 134.596C104.827 137.352 102.893 139.556 100.435 141.145C97.7851 142.86 94.5851 143.819 90.9191 143.996C86.9491 144.187 82.4471 143.457 77.5401 141.823C72.2021 140.046 66.3401 137.184 60.1161 133.316L60.0011 133.245L59.8811 133.181C59.807 133.141 59.734 133.1 59.6621 133.056C68.5701 122.321 63.1381 106.109 60.9651 100.764C60.6751 100.051 59.6921 100.057 59.3001 100.72C54.2101 109.337 43.7701 108.698 43.9561 118.961L43.9431 118.938C35.9631 112.448 30.0381 121.082 20.1071 119.785C19.3431 119.686 18.7341 120.458 19.1171 121.125C21.9821 126.113 31.3621 140.3 45.2341 139.982C45.7841 140.583 46.4211 141.278 46.9141 141.823L48.5881 143.671C55.3861 151.172 62.8311 157.125 70.7171 161.364C78.0631 165.312 85.7941 167.783 93.6971 168.71C96.0651 168.988 98.4357 169.126 100.809 169.125C114.569 169.125 128.247 164.499 139.964 155.771C146.496 150.919 152.144 144.979 156.661 138.211C161.273 131.297 164.502 123.814 166.257 115.97C167.42 110.804 167.909 105.51 167.713 100.218C172.064 98.9232 176.869 102.76 179.22 105.012C179.794 105.561 180.741 105.22 180.715 104.426C180.593 100.824 179.56 93.0382 173.596 84.6842ZM133.945 150.191C122.12 158.574 108.218 162.305 94.6351 160.712C87.7431 159.904 80.9791 157.737 74.5301 154.27C68.3741 150.961 62.4861 146.453 56.9901 140.846C69.2721 148.305 80.2471 152.077 89.6561 152.077C90.2121 152.077 90.7624 152.064 91.3071 152.038C96.4091 151.792 100.951 150.402 104.809 147.905C108.504 145.515 111.397 142.233 113.407 138.154C115.197 134.521 116.193 130.435 116.367 126.006C116.529 121.872 115.972 117.647 114.709 113.448C112.058 104.637 106.571 96.9122 99.2611 91.6982C93.8461 87.8352 88.4141 82.8282 83.5561 77.2202C79.6251 72.6832 76.2821 68.0122 73.7741 63.5662V63.5602C73.7741 63.5602 73.7541 63.5302 73.7231 63.4752L73.6471 63.3382C73.2311 62.5612 72.1371 59.9812 75.5841 59.4882C108.155 54.8372 174.427 116.714 133.945 150.191Z" fill="black"/><path d="M75.571 59.504C72.123 59.996 73.2181 62.574 73.6341 63.353L73.71 63.49L73.7621 63.575V63.581C76.2691 68.027 79.612 72.698 83.543 77.235C88.403 82.844 93.8331 87.85 99.2481 91.712C106.56 96.927 112.046 104.652 114.696 113.463C115.959 117.662 116.516 121.887 116.354 126.021C116.18 130.449 115.185 134.536 113.395 138.169C111.384 142.248 108.492 145.53 104.796 147.92C100.938 150.416 96.396 151.807 91.294 152.053C90.7441 152.08 90.1936 152.093 89.643 152.093C80.234 152.093 69.2601 148.32 56.9771 140.861C62.4731 146.468 68.361 150.976 74.517 154.285C80.966 157.752 87.7301 159.919 94.6221 160.727C108.206 162.319 122.108 158.588 133.933 150.206C174.415 116.729 108.142 54.852 75.571 59.504Z" fill="white"/><path d="M52.734 133.496C52.7346 133.498 52.75 133.501 52.78 133.504C52.748 133.498 52.734 133.496 52.734 133.496Z" fill="black"/><path d="M109.469 57.2482C108.339 55.6642 106.076 51.3672 113.088 51.3672C120.1 51.3672 130.815 59.3072 132.994 62.2442C132.315 64.0342 127.791 64.4342 125.53 64.2612C123.267 64.0872 119.422 63.7152 116.482 62.2442C113.54 60.7732 110.6 58.8312 109.469 57.2482Z" fill="white"/></svg>