<svg xmlns:xlink="http://www.w3.org/1999/xlink" xmlns="http://www.w3.org/2000/svg" viewBox="0 0 71.84427642822266 74.607421875" fill="none" width="71.84427642822266"  height="74.607421875" > <path fill-rule="evenodd" clip-rule="evenodd" d="M35.885218238724605 74.58807919361857C24.809749487222565 74.5798470369445 15.888286894313495 71.94904933134715 9.65477313106325 67.22379140043259C3.346496417654885 62.44190620997217 0 55.65561559902297 0 47.976510177877216C0 40.57779700223605 3.339187260365486 35.24261109956106 7.117422876681222 31.636178098440173C10.078379956767295 28.810053766303593 13.34587261628045 26.999977135181425 15.621066099487411 25.958983504851663C15.106556307358213 24.39592146581014 14.46467260014481 22.349656775930193 13.890367415446706 20.236187752474677C13.121908062887192 17.40804280006356 12.368017133047847 14.089884958110915 12.368017133047847 11.658355335884623C12.368017133047847 8.780318524842793 13.001918142880333 5.889958424719175 14.711063543992573 3.6440514625284406C16.516849475272497 1.2711672255296178 19.235307176484003 0 22.505743455656372 0C25.061678427378336 0 27.231724818521077 0.9385257310740153 28.930542604896758 2.5575814030567803C30.554522603326376 4.105176965922779 31.635180261267557 6.16039724442694 32.38156246638298 8.30287838367621C33.69272051119804 12.067568360373707 34.20336368428337 16.797291612635718 34.346553318553504 21.517310898394054H37.47901366268265C37.622452756245934 16.797291612635718 38.132846470038096 12.067568360373707 39.444253974146314 8.30287838367621C40.19063617926174 6.16039724442694 41.271293837202926 4.105176965922779 42.89527383563254 2.5575814030567803C44.59384216271506 0.9385257310740153 46.763888553857804 0 49.31984847150908 0C52.590259804752144 0 55.30886718153954 1.2711672255296178 57.11470300467809 3.6440514625284406C58.82374862207307 5.889958424719175 59.45762468597624 8.780318524842793 59.45762468597624 11.658355335884623C59.45762468597624 14.089884958110915 58.70400816135936 17.40804280006356 57.93517461986012 20.236187752474677C57.360919327020646 22.349656775930193 56.719060565736555 24.39592146581014 56.20467550325394 25.958983504851663C58.47974425681432 26.999977135181425 61.74741153783268 28.810053766303593 64.70824388827218 31.636178098440173C68.48655434237587 35.24261109956106 71.8258164405293 40.57779700223605 71.8258164405293 47.976510177877216C71.8258164405293 55.65561559902297 68.47932002287442 62.44190620997217 62.17099341760742 67.22379140043259C55.93725514099334 71.94904933134715 47.015842439942894 74.5798470369445 35.9405982018047 74.58807919361857H35.885218238724605ZM27.270391008959876 44.276779401116904C27.270391008959876 47.92636885995336 25.545629456096226 49.82699921449026 23.418140820365483 49.82699921449026C21.290577346846796 49.82699921449026 19.565790848053826 47.92636885995336 19.565790848053826 44.276779401116904C19.565790848053826 40.62718994228045 21.290577346846796 38.7263101284504 23.418140820365483 38.7263101284504C25.545629456096226 38.7263101284504 27.270391008959876 40.62718994228045 27.270391008959876 44.276779401116904ZM48.458465532249875 49.82699921449026C50.58610384355651 49.82699921449026 52.31061593712701 47.92636885995336 52.31061593712701 44.276779401116904C52.31061593712701 40.62718994228045 50.58610384355651 38.7263101284504 48.458465532249875 38.7263101284504C46.33057776165008 38.7263101284504 44.60606566807959 40.62718994228045 44.60606566807959 44.276779401116904C44.60606566807959 47.92636885995336 46.33057776165008 49.82699921449026 48.458465532249875 49.82699921449026Z" fill="#FFFFFF"></path> </svg>