<svg xmlns="http://www.w3.org/2000/svg" viewBox="0 0 46.6171875 55.275390625" fill="none"> <g clip-path="url(#clip0_878_3038)"> <path d="M23.031009588068184 0.0003773175213068182C21.108786008522728 0.009119094673295455 19.27309090909091 0.16957238778409092 17.657892613636367 0.449307421875C12.89969872159091 1.2720584019886365 12.035785014204546 2.9941446732954544 12.035785014204546 6.169971732954545V10.36427215909091H23.28000021306818V11.762363991477274H12.035785014204546H7.815932386363636C4.548042613636364 11.762363991477274 1.6865923934659093 13.68478700284091 0.7915648295454545 17.341917826704545C-0.24083486079545458 21.533849999999997 -0.28662839488636366 24.149672514204546 0.7915648295454545 28.526727272727275C1.5908451775568182 31.784695312500002 3.499629545454545 34.10633096590909 6.767519318181819 34.10633096590909H10.633530042613636V29.078156250000003C10.633530042613636 25.445754971590908 13.844656534090909 22.24168338068182 17.657892613636367 22.24168338068182H28.888945312500002C32.01528835227273 22.24168338068182 34.51117755681818 19.72226122159091 34.51117755681818 16.64929112215909V6.169971732954545C34.51117755681818 3.1874938210227275 31.94050142045455 0.9470717897727273 28.888945312500002 0.449307421875C26.957448153409093 0.13460500994318184 24.953158380681817 -0.008364594247159091 23.031009588068184 0.0003773175213068182ZM16.950208806818182 3.3737631392045455C18.111674786931818 3.3737631392045455 19.060147585227273 4.317250142045455 19.060147585227273 5.477320099431818C19.060147585227273 6.633301704545454 18.111674786931818 7.568063565340909 16.950208806818182 7.568063565340909C15.784604616477273 7.568063565340909 14.840294957386364 6.633301704545454 14.840294957386364 5.477320099431818C14.840294957386364 4.317250142045455 15.784604616477273 3.3737631392045455 16.950208806818182 3.3737631392045455Z" fill="url(#paint0_linear_878_3038)"></path> <path d="M35.91318323863637 11.763660298295454V16.650612357954543C35.91318323863637 20.439368181818182 32.631283380681815 23.628258025568183 28.888945312500002 23.628258025568183H17.65774303977273C14.581357670454546 23.628258025568183 12.03563544034091 26.20534090909091 12.03563544034091 29.22075V39.69989488636364C12.03563544034091 42.68239772727273 14.685436150568183 44.43664985795454 17.65774303977273 45.29246164772728C21.21705255681818 46.316793323863635 24.63020348011364 46.50176633522727 28.888945312500002 45.29246164772728C31.71963068181818 44.490247159090906 34.51092826704546 42.87584659090909 34.51092826704546 39.69989488636364V35.50559446022727H23.279850639204543V34.10757741477273H34.51092826704546H40.13316051136364C43.40085085227273 34.10757741477273 44.61863139204546 31.876683238636367 45.75514346590909 28.52797372159091C46.92904900568182 25.08079474431818 46.87919105113636 21.765539914772727 45.75514346590909 17.3432390625C44.94769389204546 14.15918544034091 43.405088778409095 11.763660298295454 40.13316051136364 11.763660298295454H35.91318323863637ZM29.596429687500002 38.30187784090909C30.76210866477273 38.30187784090909 31.706418323863637 39.236714488636366 31.706418323863637 40.39267116477273C31.706418323863637 41.55261647727273 30.76210866477273 42.49617826704545 29.596429687500002 42.49617826704545C28.434988636363634 42.49617826704545 27.486690340909092 41.55261647727273 27.486690340909092 40.39267116477273C27.486690340909092 39.236714488636366 28.434988636363634 38.30187784090909 29.596429687500002 38.30187784090909Z" fill="url(#paint1_linear_878_3038)"></path> </g> <defs> <linearGradient id="paint0_linear_878_3038" x1="-5.61915e-07" y1="-4.77744e-07" x2="102.121" y2="88.9111" gradientUnits="userSpaceOnUse"> <stop stop-color="white"></stop> <stop offset="1" stop-color="white"></stop> </linearGradient> <linearGradient id="paint1_linear_878_3038" x1="117.64" y1="160.616" x2="81.3805" y2="108.703" gradientUnits="userSpaceOnUse"> <stop stop-color="white"></stop> <stop offset="1" stop-color="white"></stop> </linearGradient> <clipPath id="clip0_878_3038"> <rect width="11.621191193181819" height="13.77939247159091" fill="white" transform="scale(4.0114)"></rect> </clipPath> </defs> </svg>
