<svg xmlns:xlink="http://www.w3.org/1999/xlink" xmlns="http://www.w3.org/2000/svg" viewBox="0 0 65.81494140625 76" fill="none" width="65.81494140625"  height="76" > <path fill-rule="evenodd" clip-rule="evenodd" d="M62.204094393643466 54.88218216219815V28.45075211403587L65.63021083207565 26.472315087520716V56.84017666903409L32.81523006554806 75.78690222537878L0 56.84017666903409V18.946725556344695L32.81523006554806 0L58.818364396528764 15.030935981889204L55.41244117875532 16.98883076911695L32.81523006554806 3.9361822343306105L3.4059232177734375 20.92501300344756V54.88218216219815L32.81523006554806 71.85071999104818L62.204094393643466 54.88218216219815ZM19.660543441679984 54.88268076023911H24.575673069624468V43.35983073471532H34.40600711521958C36.404637362393466 43.38002395537406 38.38282508988814 43.09457657692649 40.27974133670691 42.482796780672935C42.19685080418442 41.66684108664773 43.84870611387311 40.320875675085816 45.01118744636304 38.607692806359495C46.275632078228575 36.81298915793679 46.94873943351977 34.67151057202888 46.928296913840555 32.46895372610381C46.90785439416134 29.61373204456676 45.765815581350616 26.860473662405305 43.726300294818294 24.820883586166847C41.7072275279652 22.781393229536576 38.95396914580374 21.639304556921758 36.07830494458747 21.61891189704664H19.660543441679984V26.636104543974902H36.057862424908265C36.83293307957505 26.636104543974902 37.58756121456262 26.778703583688447 38.30130431019176 27.084593481815222C38.99485418516217 27.390732678962475 39.64751902077415 27.819028396144056 40.17777803733132 28.369480633359967C40.72823027454723 28.89973964991714 41.15652599172881 29.531961965849902 41.462415889855585 30.245954360499525C41.74811256732362 30.95969745612867 41.89071160703717 31.71432559111624 41.89071160703717 32.48939624578303C41.89071160703717 34.039288256096114 41.27893181078362 35.52810200639205 40.17777803733132 36.629505078864824C39.09681748453776 37.73065885231712 37.60800373424183 38.362881168249885 36.057862424908265 38.3833236879291H19.660543441679984V54.88268076023911ZM46.82608431544448 54.4753261607777H41.09519843269117L36.669642221161816 46.74556073183002C38.42346083022609 46.64359743245443 40.15708621863163 46.27662927431049 41.80919082734079 45.70548521839489L46.82608431544448 54.4753261607777ZM62.18365187396425 24.841425825454248L58.777479357170336 22.94470901785186H58.79792187684955V18.98813412364613L62.18365187396425 17.030239336418383L65.56913257205848 18.98813412364613V22.965126607629024L62.18365187396425 24.841425825454248Z" fill="#FFFFFF"></path> </svg>