<svg xmlns="http://www.w3.org/2000/svg" viewBox="0 0 55.85550308227539 49.474609375" fill="none"> <path d="M55.74005175224372 24.691349040891442C55.74005175224372 21.0187250357696 51.115764677865165 17.538204064462867 44.026105465207785 15.379837709196977C45.66212312468461 8.192780463039874 44.93500416491713 2.474785286677735 41.731042740345 0.6441211731561592C40.992702808976176 0.21470705771871976 40.12918670552117 0.011300216596347945 39.18612638115883 0.011300216596347945V2.531276644817421C39.708774302857265 2.531276644817421 40.12918670552117 2.632988518510546 40.48127585887909 2.8250915523256572C42.02652832584722 3.7065362748503685 42.696794362834524 7.062753816306591 42.17414644113609 11.37948652683837C42.049219623974395 12.4417385050995 41.84474858590535 13.560469373754092 41.594894951581956 14.701816734058518C39.367906121100695 14.15939496684926 36.9364462525504 13.741276629490512 34.380059566838405 13.470053278139659C32.8462774263961 11.37948652683837 31.25564236317362 9.481022809352194 29.653786328349796 7.8198701734883445C33.35770437649318 4.395853028067521 36.834210733515874 2.5199808667387282 39.19759670768465 2.5199808667387282V0C36.073179504019876 0 31.982761322941098 2.214877661799533 27.84720990053245 6.0570056639313705C23.711633542631354 2.237479192153897 19.621464716477053 0.04520181393410478 16.497022577319825 0.04520181393410478V2.5651889145459448C18.848888353977884 2.5651889145459448 22.33688997301885 4.429765297796045 26.04088282763958 7.831165951567037C24.450148022447316 9.492318587430887 22.859512959224837 11.37948652683837 21.348422116909706 13.470053278139659C18.780714717626573 13.741276629490512 16.349329655553614 14.15939496684926 14.122465502534595 14.713112512137208C13.861141541685377 13.583060929911477 13.667991217187474 12.486921617414271 13.531643944484847 11.435990352724279C12.997650373722827 7.1192576421925 13.656645568123885 3.7630401007362777 15.190452644058636 2.8702996001328738C15.531295890322752 2.6669007882390705 15.97439959111384 2.576484692624637 16.497022577319825 2.576484692624637V0.05650183104651315C15.542666474878787 0.05650183104651315 14.679175306916237 0.2599076248782021 13.92931517803669 0.6893242338648864C10.73669940252815 2.5199808667387282 10.020926091824258 8.2266927327684 11.668364206842012 15.391133487275669C4.601446163296699 17.56079562062025 0 21.030020813848292 0 24.691349040891442C0 28.363873304043498 4.624162396916321 31.84461869478226 11.713796674081257 34.00278556610857C10.077729143619537 41.18994255423546 10.804873038879462 46.907900327358924 14.00883446345159 48.73866418285029C14.74734894326755 49.16805336279529 15.610840111230102 49.37152698116643 16.56519621367114 49.37152698116643C19.689638352828368 49.37152698116643 23.77980717898267 47.15650718705995 27.915533149838446 43.31444651075772C32.0510845722471 47.13381588893277 36.141253398401396 49.326144384912084 39.26567060206617 49.326144384912084C40.21995189802987 49.326144384912084 41.08346800148487 49.12292012146541 41.83327825937952 48.693281586595944C45.0260187123503 46.86276708602905 45.74166734559196 41.15603028450694 44.09442871451378 33.991564594507224C51.138455975992336 31.833148368256435 55.74005175224372 28.352652332442148 55.74005175224372 24.691349040891442ZM40.94707085779735 17.153997996832643C40.52690781005791 18.611751820802688 40.004259888359485 20.114688757087503 39.41328871735505 21.617650628864766C38.94749371843679 20.71361435018267 38.459007421391355 19.80957807150057 37.924889173167095 18.90554179281848C37.40224125146866 18.00153044962883 36.845681060041706 17.12008572710412 36.28887151369027 16.26125749622924C37.90219787503992 16.498568577851568 39.45892066853387 16.792383485359807 40.94707085779735 17.153997996832643ZM35.74353229386466 29.188988749129432C34.857324892282485 30.71454217706408 33.948426192573145 32.160800739015855 33.005365868210795 33.50557184670653C31.312495285953794 33.652441897221976 29.596933405569622 33.73173676320485 27.869901198659626 33.73173676320485C26.154339318275454 33.73173676320485 24.43877743789128 33.652441897221976 22.757277440190315 33.51704217323235C21.814266986812864 32.17227106554167 20.893972767055036 30.73698412026678 20.007765365472864 29.222901018857957C19.14427419751031 27.742480832253186 18.360327250455107 26.239618702445714 17.644553939751216 24.725261310619967C18.34898160139152 23.211003660764014 19.14427419751031 21.696746010908058 19.996394780916827 20.21640063078063C20.882602182499 18.690847202845983 21.791525817700794 17.244389156954632 22.734536271078248 15.899642984756403C24.427431788827693 15.752747998748507 26.143118346674104 15.673652616705214 27.869901198659626 15.673652616705214C29.585463079043798 15.673652616705214 31.301274314352444 15.752747998748507 32.98267457008362 15.88834720667771C33.92573489444597 17.233093378875935 34.84610392068114 18.6682556466886 35.732311322263314 20.182488361052105C36.595578070793835 21.662858676671984 37.37954995334149 23.165795612956796 38.095447941507615 24.680053262812752C37.37954995334149 26.194236106191365 36.595578070793835 27.708568562524658 35.74353229386466 29.188988749129432ZM39.41328871735505 27.719789534126008C40.02695118648665 29.234121990459307 40.549599108185085 30.748454446792604 40.981232482450345 32.21740430687155C39.492832938262396 32.57896894735949 37.924889173167095 32.884179374916215 36.30034184021609 33.12156526301589C36.85690203164305 32.251316576600075 37.41371157799448 31.358625946981565 37.93635949969292 30.443244019235884C38.459007421391355 29.539332418016023 38.94749371843679 28.623950490270342 39.41328871735505 27.719789534126008ZM27.892592496786797 39.77734690708773C26.836075681788582 38.6926529856239 25.779558866790364 37.483281601922855 24.734188216916152 36.16120179235936C25.756618213738715 36.20633503368922 26.801914057135583 36.24024730341775 27.858680227058276 36.24024730341775C28.92666736858232 36.24024730341775 29.983184183580533 36.21780536021505 31.017259055376055 36.16120179235936C29.99465451010636 37.483281601922855 28.93788834018367 38.6926529856239 27.892592496786797 39.77734690708773ZM19.439684976535187 33.12156526301589C17.826333679693086 32.884179374916215 16.269810370138714 32.59043927388532 14.781435761443207 32.2286252784729C15.201798293122224 30.770896389995304 15.724446214820658 29.268034260187832 16.31524283737796 27.765172130380357C16.781062771788665 28.669083731600217 17.269623875311442 29.573244687744552 17.803617446073467 30.47715628896441C18.337611016835485 31.38106789018427 18.88297517215354 32.26253754820142 19.439684976535187 33.12156526301589ZM27.8359889289311 9.605326239202704C28.89250574392932 10.690169773621218 29.949271913852012 11.899316737890244 30.994318402324406 13.221446418438639C29.971963211979183 13.17626330612387 28.92666736858232 13.142351036395345 27.869901198659626 13.142351036395345C26.801914057135583 13.142351036395345 25.745397242137365 13.16494259255273 24.711471983296533 13.221446418438639C25.73392691561154 11.899316737890244 26.790693085534233 10.690169773621218 27.8359889289311 9.605326239202704ZM19.42831439197915 16.26125749622924C18.87160458759751 17.131381505182812 18.314894783215863 18.024122005786214 17.79224686151743 18.939454062547004C17.269623875311442 19.8434903412291 16.781062771788665 20.747526619911195 16.31524283737796 21.651537963100843C15.701729981201035 20.137305248737334 15.179082059502601 18.62304759888138 14.74734894326755 17.153997996832643C16.23572355196306 16.803679263438497 17.803617446073467 16.498568577851568 19.42831439197915 16.26125749622924ZM9.146089274798122 30.40933174950736C5.124069149502686 28.70299600132874 2.522274932043893 26.465534264019556 2.522274932043893 24.691349040891442C2.522274932043893 22.917188753255775 5.124069149502686 20.668406302375455 9.146089274798122 18.973341396783077C10.123186546351228 18.55524799491678 11.19117368787527 18.18233770536525 12.293247647574969 17.832018971971106C12.940847321927547 20.0468891531229 13.792967905334065 22.352175429889133 14.84960939779452 24.713965532541273C13.804338489890098 27.06448479260717 12.963588491039618 29.35830074284758 12.327334465750626 31.562099565352714C11.202544272431306 31.21175589646612 10.134532195414815 30.827499957851003 9.146089274798122 30.40933174950736ZM15.258626280409949 46.55755665847233C13.713448619919165 45.676087000455176 13.043107776454518 42.32001907195364 13.565730762660504 38.00318661945207C13.690732386299542 36.940934641190935 13.895228359861033 35.82232844999858 14.145181736154216 34.68078160575458C16.372045889173236 35.22337792141097 18.80343095124619 35.641546129754616 21.359792701465743 35.91259493265833C22.893599777400496 38.00318661945207 24.484234840622968 39.901775014400485 26.086265423893927 41.56272816632475C22.38234737575054 44.98686998920782 18.90569140577316 46.86276708602905 16.542479980051517 46.86276708602905C16.03120264290912 46.85129675950323 15.599469526674067 46.74980930524213 15.258626280409949 46.55755665847233ZM42.20830806578909 37.94658305159637C42.74242631401335 42.26341550409794 42.08338124862739 45.61973278752395 40.549599108185085 46.512423417142465C40.20873092642852 46.715897035513606 39.76562722563743 46.806163518173356 39.242979303939 46.806163518173356C36.89106365629605 46.806163518173356 33.40308697274753 44.94173674787794 29.699168924604145 41.54028622312205C31.28980398782662 39.87908371627331 32.880439051049095 37.99196564785072 34.39152989336422 35.90137396105698C36.959386905602045 35.63007580322879 39.39059741922787 35.21190759488514 41.617586249709134 34.658339662551874C41.87891021055835 35.79963715187141 42.08338124862739 36.895801399861064 42.20830806578909 37.94658305159637ZM46.582492150919784 30.40933174950736C45.60551955682891 30.827499957851003 44.53753241530487 31.200285569940295 43.43538364912783 31.550629238826886C42.78780891026769 29.335858799644882 41.93551377841404 27.030572522878646 40.87899696341582 24.66875748473406C41.924292806812694 22.318263160160612 42.765117612140514 20.024297596965518 43.401222024474826 17.82072319389241C44.52606208877904 18.17101699179411 45.594049230303085 18.55524799491678 46.5939624774456 18.973341396783077C50.61580805429391 20.679702080454145 53.21757733626025 22.917188753255775 53.21757733626025 24.691349040891442C53.2063563646589 26.465534264019556 50.60458708269256 28.71421697293009 46.582492150919784 30.40933174950736Z" fill="url(#paint0_linear_878_3032)"></path> <path d="M27.8584308721338 29.85651188194752C30.726012503589903 29.85651188194752 33.05074846446514 27.544243667296 33.05074846446514 24.692171912142207C33.05074846446514 21.840000415018626 30.726012503589903 19.527881813321795 27.8584308721338 19.527881813321795C24.990849240677697 19.527881813321795 22.66616315078735 21.840000415018626 22.66616315078735 24.692171912142207C22.66616315078735 27.544243667296 24.990849240677697 29.85651188194752 27.8584308721338 29.85651188194752Z" fill="url(#paint1_linear_878_3032)"></path> <defs> <linearGradient id="paint0_linear_878_3032" x1="148.85" y1="-223.515" x2="-340.442" y2="-17.0811" gradientUnits="userSpaceOnUse"> <stop stop-color="white"></stop> <stop offset="1" stop-color="#EAEAEA"></stop> </linearGradient> <linearGradient id="paint1_linear_878_3032" x1="118.63" y1="31.554" x2="24.5316" y2="66.909" gradientUnits="userSpaceOnUse"> <stop stop-color="white"></stop> <stop offset="1" stop-color="#EAEAEA"></stop> </linearGradient> </defs> </svg>
