<svg width="41" height="41" viewBox="0 0 41 41" fill="none" xmlns="http://www.w3.org/2000/svg">
    <path
        d="M24.9562 29.4813C25.2026 29.3181 25.5438 29.4228 25.6449 29.6927L29.476 39.9161C29.5992 40.2449 29.2888 40.5719 28.9349 40.4861L14.8293 37.0673C14.4499 36.9753 14.36 36.4989 14.6818 36.2858L24.9562 29.4813Z"
        fill="url(#paint0_linear_7402_71)" />
    <path
        d="M27.4306 27.2247C27.4129 27.1775 27.4039 27.1277 27.4039 27.0776V16.7741C27.4039 16.4827 27.1109 16.2732 26.8187 16.3558L14.7318 19.773C14.4397 19.8556 14.1467 19.6461 14.1467 19.3547V12.6958C14.1467 12.5597 14.2131 12.4314 14.3263 12.3489L30.0771 0.865944C30.296 0.706351 30.6117 0.767289 30.7488 0.995606L40.2638 16.8415C40.3312 16.9538 40.343 17.0889 40.296 17.2103L32.2851 37.9043C32.1373 38.2861 31.5719 38.2832 31.4284 37.8999L27.4306 27.2247Z"
        fill="url(#paint1_linear_7402_71)" />
    <path
        d="M10.1136 1.75901C10.1896 1.68775 10.2894 1.6442 10.3955 1.63592L24.933 0.501624C25.3871 0.466192 25.6087 1.01963 25.2461 1.28354L12.8551 10.3014C12.7404 10.3849 12.5912 10.4116 12.4527 10.3734L4.29315 8.12322C3.95753 8.03066 3.85088 7.62624 4.10044 7.39244L10.1136 1.75901Z"
        fill="url(#paint2_linear_7402_71)" />
    <path
        d="M2.02185 10.3874C2.05661 10.1214 2.33167 9.94802 2.6009 10.0225L11.2485 12.4145C11.4436 12.4684 11.5778 12.6392 11.5778 12.8335V22.5181C11.5778 22.8096 11.8711 23.0191 12.1633 22.9363L24.1663 19.5343C24.4585 19.4515 24.7518 19.661 24.7518 19.9525V26.104C24.7518 26.2468 24.6786 26.3806 24.556 26.4622L11.0931 35.4145C10.9175 35.5313 10.6807 35.5156 10.5236 35.3769L0.146663 26.2115C0.0385817 26.1161 -0.0147187 25.9766 0.00352444 25.837L2.02185 10.3874Z"
        fill="url(#paint3_linear_7402_71)" />
    <defs>
        <linearGradient id="paint0_linear_7402_71" x1="31.9234" y1="8" x2="0.264442" y2="40.7556"
            gradientUnits="userSpaceOnUse">
            <stop offset="0.015625" stop-color="#3294FF" />
            <stop offset="1" stop-color="#005BBE" />
        </linearGradient>
        <linearGradient id="paint1_linear_7402_71" x1="31.9234" y1="8" x2="0.264442" y2="40.7556"
            gradientUnits="userSpaceOnUse">
            <stop offset="0.015625" stop-color="#3294FF" />
            <stop offset="1" stop-color="#005BBE" />
        </linearGradient>
        <linearGradient id="paint2_linear_7402_71" x1="31.9234" y1="8" x2="0.264442" y2="40.7556"
            gradientUnits="userSpaceOnUse">
            <stop offset="0.015625" stop-color="#3294FF" />
            <stop offset="1" stop-color="#005BBE" />
        </linearGradient>
        <linearGradient id="paint3_linear_7402_71" x1="31.9234" y1="8" x2="0.264442" y2="40.7556"
            gradientUnits="userSpaceOnUse">
            <stop offset="0.015625" stop-color="#3294FF" />
            <stop offset="1" stop-color="#005BBE" />
        </linearGradient>
    </defs>
</svg>