<svg xmlns:xlink="http://www.w3.org/1999/xlink" xmlns="http://www.w3.org/2000/svg" viewBox="0 0 76.614990234375 75.99884796142578" fill="none" width="76.614990234375"  height="75.99884796142578" > <path fill-rule="evenodd" clip-rule="evenodd" d="M19.181922908422614 2.3879295270590517C19.3260688965639 2.2527726983582936 19.51536033009085 2.170173253837859 19.716580742553315 2.154468428640956L47.28941731108129 0.00307954826707871C48.15064966058887 -0.06412250430228268 48.571158646077215 0.9855732378931699 47.88337065556927 1.4861111975455519L24.38163505509467 18.59004091383347C24.164093403670222 18.74836192296926 23.88111706026059 18.79894778134225 23.618429963450478 18.726550358974198L8.142426540312627 14.458746018599221C7.505873264772496 14.283180397654979 7.303604699349171 13.516132078487631 7.776920629246616 13.07268850797473L19.181922908422614 2.3879295270590517ZM51.976158407503306 50.410667092388536C51.976158407503306 50.50574953955237 51.993128503060106 50.600332866258654 52.026819133944926 50.68967542816063L59.60920756486029 70.93699590925284C59.88147777445542 71.6639648556787 60.95383807750789 71.66970474094056 61.23409421442386 70.94548095703125L76.42831918325021 31.695646415983816C76.5174121849234 31.465551885051916 76.49495176433352 31.209253530098483 76.36717692719998 30.996129094723383L58.320228983229846 0.941765435333749C58.06018722484477 0.5087210395539622 57.46149223601003 0.39314221080071765 57.04622401532598 0.6958388034882685L27.172117709181595 22.475244467471242C26.957495912433835 22.63171873091409 26.831467996901722 22.87506490999402 26.831467996901722 23.13318505461752V35.762979024582656C26.831467996901722 36.31575493132253 27.38723862638691 36.71305481553466 27.941262334270665 36.55633099186304L50.86611450990559 30.075002290309445C51.420387778018124 29.918278466637826 51.976158407503306 30.31557835084996 51.976158407503306 30.868354257589832V50.410667092388536ZM48.64003726921951 55.369179277948135C48.44812545329041 54.857331248727604 47.80101578007304 54.658681306621546 47.33358947157472 54.968385550533135L27.846429447335606 67.87414322147929C27.236254687977148 68.27843079209717 27.406704324231473 69.18183882026796 28.126186463794028 69.35653098041149L54.880041229546265 75.84085440471041C55.55110868472618 76.00356767387267 56.14007082463864 75.38341050536314 55.90623289027509 74.75975949365075L48.64003726921951 55.369179277948135ZM4.9330570422244 18.06214616190261C4.422406902101995 17.92089507241513 3.900726199867671 18.249690673828123 3.834792387424929 18.754326412437017L0.0066847452440292904 48.05706457479769C-0.027916555871621795 48.321847977529515 0.07317679896252163 48.58638182003257 0.27817230900568757 48.767312985895515L19.959827097541737 66.15117940200658C20.25777705467796 66.41421588313696 20.706910598406964 66.44391355036137 21.039973679732036 66.22255362743664L46.57467681586549 49.24297478194345C46.80726694908515 49.08799787987327 46.94602243628486 48.83444468743638 46.94602243628486 48.56342227898514V36.896232023456584C46.94602243628486 36.343206556487935 46.38975268634212 35.945906672275804 45.83547941822959 36.102880056176204L23.069796756508296 42.5555093314205C22.51557340044152 42.7124827153209 21.959278694475902 42.315182831108764 21.959278694475902 41.762157364140116V23.39372593346015C21.959278694475902 23.02520034362594 21.704752217146783 22.701246210651213 21.33470430991704 22.599001384921493L4.9330570422244 18.06214616190261Z" fill="#FFFFFF"></path> </svg>