<?xml version="1.0" encoding="UTF-8"?> <svg xmlns="http://www.w3.org/2000/svg" width="18" height="18" viewBox="0 0 18 18" fill="none"><g clip-path="url(#clip0_1025_199)"><path fill-rule="evenodd" clip-rule="evenodd" d="M14.833 3.32244C15.6489 2.97889 16.5236 3.66884 16.3795 4.54235L14.6779 14.8599C14.5138 15.8547 13.4212 16.4255 12.5085 15.9298C11.7448 15.5149 10.6117 14.8765 9.59047 14.2092C9.08055 13.876 7.51912 12.8075 7.71105 12.0469C7.87515 11.3966 10.5001 8.95319 12.0001 7.50006C12.5893 6.92926 12.3209 6.59951 11.6251 7.12506C9.89887 8.42879 7.12749 10.411 6.21102 10.9688C5.40242 11.461 4.98023 11.545 4.47664 11.461C3.55704 11.3077 2.70447 11.0704 2.00841 10.7819C1.06763 10.3919 1.11345 9.09906 2.00777 8.72256L14.833 3.32244Z" fill="white"></path></g><defs><clipPath id="clip0_1025_199"><rect width="18" height="18" fill="white"></rect></clipPath></defs></svg> 