<svg width="32" height="32" viewBox="0 0 55 55" fill="none" xmlns="http://www.w3.org/2000/svg"> <path class="custom-tg" d="M38.7429 16.4617C38.7538 16.4617 38.7684 16.4617 38.783 16.4617C39.1647 16.4617 39.5189 16.5803 39.8093 16.7849L39.8038 16.7812C40.0156 16.9656 40.158 17.2249 40.1927 17.5171V17.5226C40.2293 17.7454 40.2493 18.001 40.2493 18.2621C40.2493 18.3808 40.2457 18.4977 40.2366 18.6145V18.5981C39.8257 22.924 38.0435 33.4145 37.1378 38.2571C36.7543 40.3078 36.0002 40.9944 35.2698 41.0601C33.6829 41.208 32.4778 40.012 30.9402 39.004C28.5335 37.4245 27.1731 36.4421 24.8377 34.9027C22.137 33.126 23.8881 32.1454 25.4256 30.5495C25.8292 30.1295 32.8247 23.7658 32.9617 23.1887C32.969 23.1541 32.9726 23.1157 32.9726 23.0755C32.9726 22.9331 32.9197 22.8035 32.8338 22.7048C32.7389 22.6428 32.6202 22.6081 32.496 22.6081C32.4138 22.6081 32.3353 22.6245 32.2623 22.6519L32.2659 22.6501C32.0249 22.7048 28.1805 25.2455 20.7327 30.2719C19.9202 30.9128 18.8939 31.3182 17.7764 31.3657H17.7654C16.1823 31.174 14.7452 30.8215 13.3811 30.3194L13.5163 30.3632C11.8035 29.8044 10.4431 29.5105 10.5599 28.5646C10.622 28.0728 11.3001 27.5694 12.5941 27.0544C20.5654 23.5813 25.8809 21.2921 28.5408 20.1868C31.4753 18.6292 34.8772 17.3473 38.4543 16.5164L38.741 16.4598L38.7429 16.4617ZM27.4361 0C12.2764 0.0365206 0 12.3348 0 27.5C0 42.6871 12.3111 55 27.5 55C42.6889 55 55 42.6889 55 27.5C55 12.3348 42.7236 0.0365206 27.5676 0H27.5639C27.5213 0 27.4787 0 27.4361 0Z" fill="#E6E6E6"></path> </svg>
