<svg xmlns:xlink="http://www.w3.org/1999/xlink" xmlns="http://www.w3.org/2000/svg" viewBox="0 0 71.02102661132812 82.04174041748047" fill="none" width="71.02102661132812"  height="82.04174041748047" ><path fill-rule="evenodd" clip-rule="evenodd" d="M1.435250220976177 1.8181731687718443C11.258078700818514 13.784309077212685 26.39290866827714 32.388827690365446 27.151712268387644 33.40355618286132C27.784173200105368 34.24932939099764 27.5312386667352 35.052739179751754 26.477137113872327 35.644581068179484C25.887039601536802 35.982990030067846 24.66435655919125 36.3211497953716 24.074159368221885 36.3211497953716C23.39963405302349 36.3211497953716 22.59861655148155 35.982990030067846 22.050558502968236 35.43326236443771C21.671131783254523 35.052739179751754 20.02698255737305 32.64250981348942 16.317068404123408 26.84968600785105C13.492474956986278 22.410049495913857 11.089447372018915 18.731434433690122 11.04730822956286 18.689145773283308C11.028618485717773 18.679775981702303 11.012021993183337 18.67145281577662 11.004247059743781 18.67656134576095C10.941723636667353 18.717604023244757 11.448190775210731 19.62525274333753 16.021969808638723 27.822300277549342C19.26812911794562 33.61512408318771 20.32208115285773 35.686944487561675 20.32208115285773 35.94062661068565C20.32208115285773 36.490354276315784 20.153449824058132 36.78639981882196 19.478924508859734 37.547446188193874C18.3406443497186 38.81585680381374 17.8347503633198 40.253471900377775 17.455323643606086 43.25554315506785C17.033757781436318 46.59602337164628 15.89547762229518 48.96388931852642 12.649318312988282 52.980689065712376C10.752184714419716 55.34855501259252 10.457086118935033 55.771441616660674 9.993356194650751 56.744055886358964C9.403134084022925 57.92798885979904 9.234502755223325 58.60430839040656 9.150174630994295 60.12665032573499C9.065871426423726 61.73346990324321 9.234502755223325 62.7481983957391 9.698232679507607 64.27029113448295C10.119823461335836 65.62342858886718 10.583553385620117 66.5113160198011 11.721833544761257 68.24497665887131C12.691457455444336 69.76706939761513 13.281679566072164 70.90888814825762 13.281679566072164 71.33152555574115C13.281679566072164 71.66993451762951 13.366007690301194 71.66993451762951 14.883689649497585 71.33152555574115C18.509275678518197 70.48600154418946 21.502525374113386 69.04838644762542 23.14667459999486 67.27236238917301C24.158462572792455 66.17315625449733 24.411422025821082 65.581065169485 24.411422025821082 64.05897243074116C24.411422025821082 63.08635816104287 24.36925796370657 62.87503945730109 24.1163234303364 62.28294837228876C23.694732648508175 61.35269752197266 22.89374006662469 60.59165115260074 21.165237796855724 59.40771817916067C18.88870239823191 57.84326202103465 17.919078487548827 56.57485140541478 17.6661190345202 54.883554185726766C17.455323643606086 53.44593908916273 17.708283096634712 52.47332481946443 18.973030522460938 49.80941333007812C20.27991709074322 47.06102419851203 20.617204668000877 45.919454644454156 20.827975139256527 43.12870209350586C20.95446732560007 41.352927231638056 21.165237796855724 40.63399508506374 21.671131783254523 40.08451661601819C22.21918983176784 39.492425531005864 22.682944675710576 39.28110682726408 23.989831243992857 39.1119023463199C26.13997413490697 38.81585680381374 27.5312386667352 38.266129138183594 28.627205245811062 37.20903722630551C29.59682915649414 36.3211497953716 30.01846977763929 35.43326236443771 30.060584000436883 34.122488329435654L30.10269822323448 33.14987405973736L29.554714933696545 32.55803217130962C27.573352889532792 30.274643866609274 0.1283494484885768 0 0.0018752117750212018 0C-0.023877294066386976 0 0.21779806413799085 0.29977601537764703 0.5923701851870888 0.7643980634348017L0.5923701851870888 0.7643980634348017C0.8309908667377673 1.060386290726511 1.123545165093673 1.4232713411543996 1.435250220976177 1.8181731687718443ZM14.377795663098787 61.94478860698499C14.84152558738307 61.14137881823088 14.5885910540129 60.12665032573499 13.829737614585476 59.619286079487054C13.113048237272563 59.154036056036695 12.01693214024594 59.36560395636308 12.01693214024594 59.99980926417301C12.01693214024594 60.168764548532586 12.10126026447497 60.33796902947677 12.354194797845137 60.42269586824116C12.733621517558852 60.63401457198294 12.775785579673364 60.84533327572471 12.480686984188683 61.31058329917506C12.185563469045539 61.77558412604081 12.185563469045539 62.198470730108966 12.564990188759252 62.49451627261513C13.15521229938708 62.959517099480884 13.95620488127056 62.70583497635691 14.377795663098787 61.94478860698499ZM27.826536619487563 18.645910165855007C26.94139035098427 18.51906910429302 26.899026931602076 18.476780443886206 27.320667552747228 18.43449178347939C28.121834572239926 18.307650721917405 29.976604751426297 18.476780443886206 31.283640837659334 18.772751227416993C34.31885523810136 19.491583695357473 37.05927007896022 21.35203555667275 39.96814181100946 24.60783877380371L40.726945411119964 25.495800963712995L41.823161186780425 25.32659648276881C46.502574652420854 24.565550113396895 51.30857998303865 25.15739200182463 55.31366749074835 27.017893702456828C56.40988326640882 27.52525794870477 58.138310777202406 28.54023563778526 58.34913108777498 28.79391776090923C58.433359533370165 28.87839540308902 58.55995139834756 29.428123068719163 58.644179843942744 29.977850734349303C58.9392286001105 31.96519349654348 58.81288593171772 33.44492281590512 58.18042500000001 34.586741566547595C57.84326202103465 35.22094687435752 57.84326202103465 35.389902158717106 58.05408233160722 35.93962982434725C58.22253922279759 36.362516428415404 58.72840828953793 36.65856197092157 59.192163133480676 36.65856197092157C60.20415046354595 36.65856197092157 61.25800281982422 35.05174239341334 61.76387188656456 32.81071750809519L61.97469219713713 31.92283007716129L62.35421859548469 32.34571668122945C64.50428672742342 34.75569685090718 66.1906000154194 38.09617706748561 66.44353454878957 40.46404301436574L66.52776299438477 41.09824832217568L66.14823659603722 40.54852065654554C65.5160248609041 39.57615558343185 64.92567815198397 38.941701079037315 64.12476032907587 38.39222260999178C62.69138157445005 37.419608340293486 61.17377437422903 37.12356279778732 57.16868686651933 36.91224409404554C53.54312575715718 36.70092539030376 51.47728607081363 36.404879847797595 49.45380980385229 35.72831112060547C45.996705585680516 34.586741566547595 44.22616385208933 33.10676305060136 40.13684789878444 27.652099010266756C38.32394274581106 25.242118840589022 37.185612747353005 23.931294966270045 36.04753194547955 22.83193931364361C33.56005163799085 20.42180962601511 31.07282052708676 19.153299331761414 27.826536619487563 18.645910165855007ZM59.23427735627827 24.017666502492805C59.31875499845806 22.41092168395996 59.52932611244603 21.35382977208188 59.99308095638878 20.381315181017424C60.16178704416376 20.000767076673004 60.33049313193873 19.6625076327354 60.37260735473633 19.6625076327354C60.41472157753392 19.6625076327354 60.33049313193873 19.958478416266193 60.20390126696135 20.296762779862256C59.86673828799599 21.226988710519894 59.8246240651984 22.537762745521945 60.03544437577097 24.017666502492805C60.33049313193873 25.920431943873357 60.45683580033152 26.17411406699733 62.48056126387747 28.2459344713713C63.40807095176295 29.218548741069593 64.50403753083881 30.44459593730726 64.92567815198397 30.952209380139802L65.64236752929688 31.8822110338713L64.92567815198397 31.205891503263775C64.04028268689608 30.360118295127467 62.016806419934724 28.753298717619245 61.55305157599199 28.541980013877467C61.25800281982422 28.372775532933286 61.21563940044202 28.372775532933286 61.00506828645405 28.584343433259665C60.83636219867907 28.753298717619245 60.79424797588148 29.006980840743218 60.79424797588148 30.23327723356548C60.75213375308388 32.13614235357987 60.49895002312912 33.32007532701994 59.86673828799599 34.54612252325761C59.52932611244603 35.180327831067544 59.48721188964844 35.053486769505554 59.7822606458162 34.334803819515834C59.99308095638878 33.78507615388569 60.03544437577097 33.53139403076172 60.03544437577097 31.71325574951172C60.03544437577097 28.034615767629525 59.61380375462582 27.14672833669562 57.04209500154194 25.666749820749384C56.40963406982422 25.286226636063425 55.31366749074835 24.736474050774824 54.681206559030635 24.44050326724404C54.00663140451532 24.14450756405479 53.50076233777499 23.89082544093082 53.54287656057257 23.89082544093082C53.627354202752365 23.806248120117186 56.114585313656455 24.525055668399208 57.08420922433954 24.947817674175063C58.55970220176295 25.539908759187398 58.81263673513312 25.58202298198499 58.981342822908104 25.539908759187398C59.10793468788548 25.41306769762541 59.192163133480676 25.07465873573705 59.23427735627827 24.017666502492805ZM26.899026931602076 21.225792566913807C26.646092398231907 24.058759019293532 27.784422396689965 27.864165303762338 29.55496413028115 30.316758089406868C30.946228662109377 32.21937401283666 33.096296794048115 33.699352528782896 34.698381636448914 33.86855700972708C35.75223399272718 33.95303465190687 36.04728274889494 33.61462569001851 35.583527904952206 32.93830615941098C34.90895275043689 32.00805530909488 34.108034927528784 30.528076793148642 33.89721461695621 29.893871485338714C33.770871948563425 29.513348300652755 33.475823192395666 28.329415327212686 33.26500288182309 27.314437638132198C32.548313504510176 23.847340636917917 31.789260707815068 22.45198928110223 30.102947419819078 21.43718602963096C29.47073568468596 21.056637925286545 28.16369959845292 20.54924875938014 27.404895998342415 20.422407697818155L26.983255377197267 20.337830377004526L26.899026931602076 21.225792566913807ZM57.08445842092414 48.70945960564865C48.73712042653937 45.32686516627262 45.78588527510794 42.40927155376234 45.78588527510794 37.46222095626028C45.78588527510794 36.74328880968596 45.828248694490135 36.15144692125823 45.828248694490135 36.15144692125823C45.856158711965456 36.15144692125823 45.996705585680516 36.264083777497945 46.199800802130454 36.4270583438271L46.200049998715045 36.4270583438271L46.200548391884254 36.4275567369963L46.20154517822265 36.4283043267501C46.30246979498612 36.509542413330074 46.41909379657947 36.60299113255551 46.544938071803045 36.701174586888364C48.23125135979903 38.05406284468801 50.1283849583676 38.64615392970035 55.39814513292814 39.407200299072265C58.475473756167766 39.87220112593801 60.246264686343544 40.210610087826375 61.84834952874435 40.76033775345652C66.94940361552992 42.451634973144536 70.11120988094932 45.91870705470035 70.87001348105983 50.612324725663036C71.0808337916324 51.965212983462685 70.95449112323962 54.54464683066921 70.61707894768966 55.89753508846886C70.32203019152189 56.95462700034694 69.4787489492316 58.89960634315892 69.26817783524363 58.94196976254112C69.22581441586144 58.94196976254112 69.14158597026625 58.730651058799346 69.14158597026625 58.392242096910984C69.05735752467106 56.616467235043174 68.17196205958317 54.92517001535516 66.69646908215975 53.61439598035311C64.92567815198397 52.09205404502467 62.64926735165245 50.9504844909668 57.08445842092414 48.70945960564865ZM50.76059669350072 48.330680797054896C50.8869393618935 48.66884056235865 51.09775967246608 49.47225035111276 51.18198811806127 50.1064556589227C51.85656327257659 54.08114118331106 49.79097278281765 57.3368945611251 45.61717918733295 58.64766859612716C45.195538566187814 58.81687307707134 43.50922527819182 59.15503284237511 41.86502621299342 59.40871496549908C38.53476305638363 60.00080605051141 37.01690665957802 60.38132923519737 35.541413682154605 61.10001218518709C34.48756132587634 61.60737643143503 33.1805252396433 62.36867199739155 33.26475368523849 62.45314963957134C33.30711710462068 62.49551305895354 33.56005163799085 62.410786220189145 33.81298617136102 62.32630857800936L33.81298617136102 62.32630857800936C35.710119769929584 61.649739850817234 37.81807367907072 61.31158008551347 40.979879944490136 61.14237560456929C42.038467035875826 61.07160377454256 43.215422504947064 60.97117755094829 43.86756996684827 60.91560671258224L43.99665379767167 60.90439286627518L44.18380043270714 60.888693481445316C47.008443719161185 60.50817029675935 48.989805763324945 59.66239708862305 50.50766216013055 58.09794093049702C51.35069420583625 57.21005349956312 51.85656327257659 56.40664371080901 52.27820389372173 55.26507415675113C52.531138427091896 54.54614201017681 52.5732526498895 54.25009646767064 52.5732526498895 52.98168585205079C52.5732526498895 51.670911817048726 52.5732526498895 51.41722969392475 52.27820389372173 50.613819905170644C51.89867749537418 49.55672799329256 51.47728607081363 48.79568162392064 50.9290535846911 48.161476316110715L50.549776382928144 47.69622629266036L50.76059669350072 48.330680797054896ZM55.01861873458059 56.91301117071855C53.922402958920124 54.50278180445621 53.66946842554996 52.21964269634046 54.25981513447009 50.063095453202095C54.344043580065275 49.85177674946033 54.42852122224507 49.64020884913394 54.512749667840254 49.64020884913394C54.59697811343545 49.64020884913394 54.84991264680561 49.76704991069593 55.102847180175786 49.93625439164011C55.60871624691612 50.27466335352848 56.66281779977899 50.86650524195621 59.360869221255655 52.34648375790245C62.775610020045235 54.20698545853464 64.71510703799599 55.644600555098684 66.06400815044202 57.2935343554045C67.24445237169769 58.73114945196854 67.9611417490106 60.380332448858965 68.29830472797595 62.40978943385074C68.50912503854853 63.551358987908614 68.38278237015574 66.29974811947471 68.08773361398796 67.4415668701172C67.16022392610249 71.03548001323499 65.05227001696134 73.91071020636308 61.97469219713713 75.5598932032535C61.510937353194386 75.81357532637747 61.13166015143143 75.98277980732165 61.08929673204924 75.98277980732165C61.04718250925165 75.98277980732165 61.21588859702663 75.5598932032535 61.46882313039679 75.05252895700555C62.48056126387747 72.89598171386719 62.607153128854854 70.8241613094932 61.84834952874435 68.49865878199527C61.384594684801606 67.06104368543123 60.41497077411852 65.32738304636102 58.475473756167766 62.40978943385074C56.156948733038654 59.02719499447471 55.60871624691612 58.13930756354081 55.01861873458059 56.91301117071855ZM34.108034927528784 64.77715698756168C30.566702263761822 65.36924807257401 26.730320843827098 67.22950057662162 23.610703560180664 69.85104864662573L22.725382854068155 70.69682185476204L23.526375435951635 70.82366291632403C27.742308173892372 71.45786822413395 28.880388975765833 72.04995930914629 31.831624127197266 75.09414478663395C33.51793741519325 76.82780542570416 34.108034927528784 77.20832861039011 35.49929945935701 77.58885179507607C37.565139145700556 78.13857946070621 39.58861541266191 77.16621438759252 40.30530478997482 75.30571268696033C40.60035354614258 74.45993947882401 40.558239323344985 73.10705122102436 40.221076344379625 72.43048249383224C39.37779510208933 70.78129949694183 36.89056399118524 70.27393525069388 35.710119769929584 71.45786822413395C34.74049585924651 72.43048249383224 35.03554461541427 73.95257523257607 36.258103059467516 74.20625735570003C36.51103759283768 74.24862077508224 36.51103759283768 74.24862077508224 36.17387461387233 74.07941629413806C35.6258913243344 73.82573417101409 35.37270759437963 73.48757440571033 35.37270759437963 72.93784674008019C35.33059337158203 71.62707270507813 36.806086349005454 70.950503977886 38.15523665803608 71.54234586631374C39.16697479151676 72.00759588976409 39.54650118986431 72.59943777819181 39.54650118986431 73.61441546727231C39.54650118986431 75.17887162539834 38.19735088083368 76.404918821636 36.637629457815066 76.19360011789422C35.79434821552478 76.06675905633223 34.7826100820441 75.55939481008429 34.23462679250617 74.92518950227436C32.885476483475536 73.40284756694592 33.391345550215874 70.90814055850382 35.33059337158203 69.97788970818772C36.806086349005454 69.25920675819799 38.74558336695621 69.47052546193977 40.26319056717722 70.44313973163806C41.99161807797081 71.58470928569594 42.75042167808131 72.59943777819181 44.225914655504724 76.02439563695003C44.73203291882967 77.16621438759252 45.32213043116519 78.39226158383018 45.61717918733295 78.81514818789833C47.008443719161185 80.92933201165451 48.73687122995477 81.98642392353258 50.76059669350072 81.98642392353258C51.89867749537418 81.98642392353258 52.741958737664476 81.81721944258841 53.795811093942746 81.26749177695827C54.554863890637854 80.88696859227231 55.69294469251131 80.12592222290039 55.60871624691612 80.0414445807206C55.60871624691612 80.00805223838405 55.39939111585115 80.07982085474917 55.12502567620529 80.1737679671438L55.12502567620529 80.1737679671438L55.124776479620685 80.1737679671438L55.00715569168894 80.2138886172646C54.96927781082957 80.22684683966386 54.93090153680099 80.23980506206313 54.892026869603214 80.25276328446238C52.65773029206929 81.09853649259868 50.38107029515317 81.05617307321648 49.07428340550473 80.0835588035182C48.231002163214434 79.44935349570827 47.55642700869912 78.2654205222682 47.21926402973376 76.74332778352436C47.211289739026526 76.69622962903475 47.19783312345806 76.61698511513158 47.179641772782176 76.5118241564299L47.17814659327457 76.50260388279966L47.177897396689964 76.50210548963045L47.177897396689964 76.50160709646124L47.177897396689964 76.50135789987665C47.0976560964484 76.0368554661801 46.93393394036544 75.0866688890959 46.79762340858861 74.16414313290245C46.33386856464587 71.24654952039216 45.870113720703124 69.93577548539011 44.858375587222454 68.41343355006168C43.80452323094418 66.84897739193565 41.780797767398234 65.58056677631579 39.54650118986431 64.98847569130345C38.15523665803608 64.6079525066175 35.6258913243344 64.5234748644377 34.108034927528784 64.77715698756168ZM29.175686928518193 42.19820204660516C29.47073568468596 41.09899591192948 30.44035959536904 39.999540580669205 31.452346925434316 39.703495038163034C32.126672883365025 39.49217633442126 33.433708969598065 39.61901739598324 34.06592070473119 39.95717716128701C35.288728345369044 40.59163166568153 36.17387461387233 41.986883342863386 35.96305430329976 43.00161183535928C35.75223399272718 44.22790822818154 33.770871948563425 45.242636720677424 31.452346925434316 45.242636720677424C30.271902704178657 45.242636720677424 29.850262083033513 45.07343223973324 29.38650723909077 44.48159035130551C29.091458482923006 44.10106716661956 29.006980840743218 42.87477077379729 29.175686928518193 42.19820204660516ZM33.72875772576583 40.38006376535516C34.361218657483555 40.76058695004112 34.48756132587634 41.31031461567126 34.15039834691098 41.817678861919205C33.89746381354081 42.15608782380757 33.138660213430306 42.49424758911133 32.59042772730778 42.49424758911133C31.74739568160208 42.49424758911133 30.862000216514186 41.902405700683595 30.862000216514186 41.35267803505345C30.862000216514186 40.25322270379318 32.59042772730778 39.66138081536544 33.72875772576583 40.38006376535516Z" fill="white"/></svg>